<svg width="390" height="536" xmlns="http://www.w3.org/2000/svg" font-family="monospace"><rect width="390" height="536" fill="#14141f"/><text x="15" y="22" fill="#eee" font-size="14" font-weight="bold">Night Court — DIVE declare (single moon-shadow tile), first contact</text><text x="15" y="40" fill="#aaa" font-size="11">attack: the attack · pattern: single · turnsLeft: 1</text><text x="15" y="56" fill="#aaa" font-size="11">codex: unknown (first contact) · telegraph cells: 1</text><text x="15" y="79" fill="#ffd88a" font-size="11">cue: No sound. The shadow on the ground is</text><text x="15" y="94" fill="#ffd88a" font-size="11">growing.</text><rect x="15" y="106" width="40" height="40" fill="#2a2a3e" stroke="#444" stroke-width="1"/><rect x="55" y="106" width="40" height="40" fill="#2a2a3e" stroke="#444" stroke-width="1"/><rect x="95" y="106" width="40" height="40" fill="#2a2a3e" stroke="#444" stroke-width="1"/><rect x="135" y="106" width="40" height="40" fill="#2a2a3e" stroke="#444" stroke-width="1"/><rect x="175" y="106" width="40" height="40" fill="#2a2a3e" stroke="#444" stroke-width="1"/><rect x="215" y="106" width="40" height="40" fill="#2a2a3e" stroke="#444" stroke-width="1"/><rect x="255" y="106" width="40" height="40" fill="#2a2a3e" stroke="#444" stroke-width="1"/><rect x="295" y="106" width="40" height="40" fill="#2a2a3e" stroke="#444" stroke-width="1"/><rect x="335" y="106" width="40" height="40" fill="#2a2a3e" stroke="#444" stroke-width="1"/><rect x="15" y="146" width="40" height="40" fill="#2a2a3e" stroke="#444" stroke-width="1"/><rect x="55" y="146" width="40" height="40" fill="#2a2a3e" stroke="#444" stroke-width="1"/><rect x="95" y="146" width="40" height="40" fill="#2a2a3e" stroke="#444" stroke-width="1"/><rect x="135" y="146" width="40" height="40" fill="#2a2a3e" stroke="#444" stroke-width="1"/><rect x="175" y="146" width="40" height="40" fill="#2a2a3e" stroke="#444" stroke-width="1"/><rect x="215" y="146" width="40" height="40" fill="#2a2a3e" stroke="#444" stroke-width="1"/><rect x="255" y="146" width="40" height="40" fill="#2a2a3e" stroke="#444" stroke-width="1"/><rect x="295" y="146" width="40" height="40" fill="#2a2a3e" stroke="#444" stroke-width="1"/><rect x="335" y="146" width="40" height="40" fill="#2a2a3e" stroke="#444" stroke-width="1"/><rect x="15" y="186" width="40" height="40" fill="#2a2a3e" stroke="#444" stroke-width="1"/><rect x="55" y="186" width="40" height="40" fill="#2a2a3e" stroke="#444" stroke-width="1"/><rect x="95" y="186" width="40" height="40" fill="#2a2a3e" stroke="#444" stroke-width="1"/><rect x="135" y="186" width="40" height="40" fill="#2a2a3e" stroke="#444" stroke-width="1"/><rect x="175" y="186" width="40" height="40" fill="#2a2a3e" stroke="#444" stroke-width="1"/><rect x="215" y="186" width="40" height="40" fill="#2a2a3e" stroke="#444" stroke-width="1"/><rect x="255" y="186" width="40" height="40" fill="#2a2a3e" stroke="#444" stroke-width="1"/><rect x="295" y="186" width="40" height="40" fill="#2a2a3e" stroke="#444" stroke-width="1"/><rect x="335" y="186" width="40" height="40" fill="#2a2a3e" stroke="#444" stroke-width="1"/><rect x="15" y="226" width="40" height="40" fill="#2a2a3e" stroke="#444" stroke-width="1"/><rect x="55" y="226" width="40" height="40" fill="#2a2a3e" stroke="#444" stroke-width="1"/><rect x="95" y="226" width="40" height="40" fill="#2a2a3e" stroke="#444" stroke-width="1"/><rect x="135" y="226" width="40" height="40" fill="#2a2a3e" stroke="#444" stroke-width="1"/><rect x="175" y="226" width="40" height="40" fill="#2a2a3e" stroke="#444" stroke-width="1"/><rect x="215" y="226" width="40" height="40" fill="#2a2a3e" stroke="#444" stroke-width="1"/><rect x="255" y="226" width="40" height="40" fill="#2a2a3e" stroke="#444" stroke-width="1"/><rect x="295" y="226" width="40" height="40" fill="#2a2a3e" stroke="#444" stroke-width="1"/><rect x="335" y="226" width="40" height="40" fill="#2a2a3e" stroke="#444" stroke-width="1"/><rect x="15" y="266" width="40" height="40" fill="#2a2a3e" stroke="#444" stroke-width="1"/><rect x="55" y="266" width="40" height="40" fill="#2a2a3e" stroke="#444" stroke-width="1"/><rect x="95" y="266" width="40" height="40" fill="#2a2a3e" stroke="#444" stroke-width="1"/><circle cx="115" cy="286" r="13" fill="#f5f5f5" stroke="#111" stroke-width="2"/><text x="115" y="291" text-anchor="middle" font-size="13" font-weight="bold" fill="#111">P</text><rect x="135" y="266" width="40" height="40" fill="#2a2a3e" stroke="#444" stroke-width="1"/><rect x="175" y="266" width="40" height="40" fill="#2a2a3e" stroke="#444" stroke-width="1"/><rect x="215" y="266" width="40" height="40" fill="#2a2a3e" stroke="#444" stroke-width="1"/><circle cx="235" cy="286" r="13" fill="#c62828" stroke="#fff" stroke-width="2"/><text x="235" y="291" text-anchor="middle" font-size="13" font-weight="bold" fill="#fff">T</text><rect x="255" y="266" width="40" height="40" fill="#2a2a3e" stroke="#444" stroke-width="1"/><rect x="295" y="266" width="40" height="40" fill="#2a2a3e" stroke="#444" stroke-width="1"/><rect x="335" y="266" width="40" height="40" fill="#2a2a3e" stroke="#444" stroke-width="1"/><rect x="15" y="306" width="40" height="40" fill="#2a2a3e" stroke="#444" stroke-width="1"/><rect x="55" y="306" width="40" height="40" fill="#2a2a3e" stroke="#444" stroke-width="1"/><rect x="95" y="306" width="40" height="40" fill="#2a2a3e" stroke="#444" stroke-width="1"/><rect x="135" y="306" width="40" height="40" fill="#2a2a3e" stroke="#444" stroke-width="1"/><rect x="175" y="306" width="40" height="40" fill="#2a2a3e" stroke="#444" stroke-width="1"/><rect x="215" y="306" width="40" height="40" fill="#2a2a3e" stroke="#444" stroke-width="1"/><rect x="255" y="306" width="40" height="40" fill="#2a2a3e" stroke="#444" stroke-width="1"/><rect x="295" y="306" width="40" height="40" fill="#2a2a3e" stroke="#444" stroke-width="1"/><rect x="335" y="306" width="40" height="40" fill="#2a2a3e" stroke="#444" stroke-width="1"/><rect x="15" y="346" width="40" height="40" fill="#2a2a3e" stroke="#444" stroke-width="1"/><rect x="55" y="346" width="40" height="40" fill="#2a2a3e" stroke="#444" stroke-width="1"/><rect x="95" y="346" width="40" height="40" fill="#2a2a3e" stroke="#444" stroke-width="1"/><rect x="135" y="346" width="40" height="40" fill="#2a2a3e" stroke="#444" stroke-width="1"/><rect x="175" y="346" width="40" height="40" fill="#2a2a3e" stroke="#444" stroke-width="1"/><rect x="215" y="346" width="40" height="40" fill="#2a2a3e" stroke="#444" stroke-width="1"/><rect x="255" y="346" width="40" height="40" fill="#2a2a3e" stroke="#444" stroke-width="1"/><rect x="295" y="346" width="40" height="40" fill="#2a2a3e" stroke="#444" stroke-width="1"/><rect x="335" y="346" width="40" height="40" fill="#2a2a3e" stroke="#444" stroke-width="1"/><rect x="15" y="386" width="40" height="40" fill="#2a2a3e" stroke="#444" stroke-width="1"/><rect x="55" y="386" width="40" height="40" fill="#2a2a3e" stroke="#444" stroke-width="1"/><rect x="95" y="386" width="40" height="40" fill="#2a2a3e" stroke="#444" stroke-width="1"/><rect x="135" y="386" width="40" height="40" fill="#2a2a3e" stroke="#444" stroke-width="1"/><rect x="175" y="386" width="40" height="40" fill="#2a2a3e" stroke="#444" stroke-width="1"/><rect x="215" y="386" width="40" height="40" fill="#2a2a3e" stroke="#444" stroke-width="1"/><rect x="255" y="386" width="40" height="40" fill="#2a2a3e" stroke="#444" stroke-width="1"/><rect x="295" y="386" width="40" height="40" fill="#2a2a3e" stroke="#444" stroke-width="1"/><rect x="335" y="386" width="40" height="40" fill="#2a2a3e" stroke="#444" stroke-width="1"/><rect x="15" y="426" width="40" height="40" fill="#2a2a3e" stroke="#444" stroke-width="1"/><rect x="55" y="426" width="40" height="40" fill="#2a2a3e" stroke="#444" stroke-width="1"/><rect x="95" y="426" width="40" height="40" fill="#2a2a3e" stroke="#444" stroke-width="1"/><rect x="135" y="426" width="40" height="40" fill="#2a2a3e" stroke="#444" stroke-width="1"/><rect x="175" y="426" width="40" height="40" fill="#2a2a3e" stroke="#444" stroke-width="1"/><rect x="215" y="426" width="40" height="40" fill="#2a2a3e" stroke="#444" stroke-width="1"/><rect x="255" y="426" width="40" height="40" fill="#2a2a3e" stroke="#444" stroke-width="1"/><rect x="295" y="426" width="40" height="40" fill="#2a2a3e" stroke="#444" stroke-width="1"/><rect x="335" y="426" width="40" height="40" fill="#2a2a3e" stroke="#444" stroke-width="1"/><text x="15" y="488" fill="#888" font-size="10">legend:</text><rect x="70" y="478" width="10" height="10" fill="#ff6b35" stroke="#555" stroke-width="1"/><text x="83" y="488" fill="#aaa" font-size="10">burstRadius</text><rect x="169.2" y="478" width="10" height="10" fill="#ffd23f" stroke="#555" stroke-width="1"/><text x="182.2" y="488" fill="#aaa" font-size="10">chargeLane/dozeLane</text><rect x="70" y="494" width="10" height="10" fill="#e71d36" stroke="#555" stroke-width="1"/><text x="83" y="504" fill="#aaa" font-size="10">lineAttack</text><rect x="163" y="494" width="10" height="10" fill="#ff3b30" stroke="#555" stroke-width="1"/><text x="176" y="504" fill="#aaa" font-size="10">targetTile</text><rect x="256" y="494" width="10" height="10" fill="#fff" stroke="#555" stroke-width="1"/><text x="269" y="504" fill="#aaa" font-size="10">flashBurst</text><text x="15" y="524" fill="#666" font-size="10">visual proof 2026-10-08 — real combat, app.js bucket routing, pristine HEAD snapshot</text></svg>