<svg width="390" height="460" xmlns="http://www.w3.org/2000/svg"><rect width="390" height="460" fill="#14141f"/><rect x="15" y="15" width="40" height="40" fill="#23232f" stroke="#333" stroke-width="1"/><rect x="55" y="15" width="40" height="40" fill="#23232f" stroke="#333" stroke-width="1"/><rect x="95" y="15" width="40" height="40" fill="#23232f" stroke="#333" stroke-width="1"/><rect x="135" y="15" width="40" height="40" fill="#23232f" stroke="#333" stroke-width="1"/><rect x="175" y="15" width="40" height="40" fill="#23232f" stroke="#333" stroke-width="1"/><rect x="215" y="15" width="40" height="40" fill="#23232f" stroke="#333" stroke-width="1"/><rect x="255" y="15" width="40" height="40" fill="#23232f" stroke="#333" stroke-width="1"/><rect x="295" y="15" width="40" height="40" fill="#23232f" stroke="#333" stroke-width="1"/><rect x="335" y="15" width="40" height="40" fill="#23232f" stroke="#333" stroke-width="1"/><rect x="15" y="55" width="40" height="40" fill="#23232f" stroke="#333" stroke-width="1"/><rect x="55" y="55" width="40" height="40" fill="#23232f" stroke="#333" stroke-width="1"/><rect x="95" y="55" width="40" height="40" fill="#23232f" stroke="#333" stroke-width="1"/><rect x="135" y="55" width="40" height="40" fill="#23232f" stroke="#333" stroke-width="1"/><rect x="175" y="55" width="40" height="40" fill="#23232f" stroke="#333" stroke-width="1"/><rect x="215" y="55" width="40" height="40" fill="#23232f" stroke="#333" stroke-width="1"/><rect x="255" y="55" width="40" height="40" fill="#23232f" stroke="#333" stroke-width="1"/><rect x="295" y="55" width="40" height="40" fill="#23232f" stroke="#333" stroke-width="1"/><rect x="335" y="55" width="40" height="40" fill="#23232f" stroke="#333" stroke-width="1"/><rect x="15" y="95" width="40" height="40" fill="#23232f" stroke="#333" stroke-width="1"/><rect x="55" y="95" width="40" height="40" fill="#23232f" stroke="#333" stroke-width="1"/><rect x="95" y="95" width="40" height="40" fill="#23232f" stroke="#333" stroke-width="1"/><rect x="135" y="95" width="40" height="40" fill="#23232f" stroke="#333" stroke-width="1"/><rect x="175" y="95" width="40" height="40" fill="#23232f" stroke="#333" stroke-width="1"/><rect x="215" y="95" width="40" height="40" fill="#23232f" stroke="#333" stroke-width="1"/><rect x="255" y="95" width="40" height="40" fill="#23232f" stroke="#333" stroke-width="1"/><rect x="295" y="95" width="40" height="40" fill="#23232f" stroke="#333" stroke-width="1"/><rect x="335" y="95" width="40" height="40" fill="#23232f" stroke="#333" stroke-width="1"/><rect x="15" y="135" width="40" height="40" fill="#23232f" stroke="#333" stroke-width="1"/><rect x="55" y="135" width="40" height="40" fill="#23232f" stroke="#333" stroke-width="1"/><rect x="95" y="135" width="40" height="40" fill="#23232f" stroke="#333" stroke-width="1"/><rect x="135" y="135" width="40" height="40" fill="#23232f" stroke="#333" stroke-width="1"/><rect x="175" y="135" width="40" height="40" fill="#23232f" stroke="#333" stroke-width="1"/><rect x="215" y="135" width="40" height="40" fill="#23232f" stroke="#333" stroke-width="1"/><rect x="255" y="135" width="40" height="40" fill="#23232f" stroke="#333" stroke-width="1"/><rect x="295" y="135" width="40" height="40" fill="#23232f" stroke="#333" stroke-width="1"/><rect x="335" y="135" width="40" height="40" fill="#23232f" stroke="#333" stroke-width="1"/><rect x="15" y="175" width="40" height="40" fill="#23232f" stroke="#333" stroke-width="1"/><rect x="55" y="175" width="40" height="40" fill="#23232f" stroke="#333" stroke-width="1"/><rect x="95" y="175" width="40" height="40" fill="#23232f" stroke="#333" stroke-width="1"/><rect x="135" y="175" width="40" height="40" fill="#23232f" stroke="#333" stroke-width="1"/><rect x="175" y="175" width="40" height="40" fill="#23232f" stroke="#333" stroke-width="1"/><rect x="215" y="175" width="40" height="40" fill="#23232f" stroke="#333" stroke-width="1"/><rect x="255" y="175" width="40" height="40" fill="#23232f" stroke="#333" stroke-width="1"/><rect x="295" y="175" width="40" height="40" fill="#23232f" stroke="#333" stroke-width="1"/><rect x="335" y="175" width="40" height="40" fill="#23232f" stroke="#333" stroke-width="1"/><rect x="15" y="215" width="40" height="40" fill="#23232f" stroke="#333" stroke-width="1"/><rect x="55" y="215" width="40" height="40" fill="#23232f" stroke="#333" stroke-width="1"/><rect x="95" y="215" width="40" height="40" fill="#23232f" stroke="#333" stroke-width="1"/><rect x="135" y="215" width="40" height="40" fill="#23232f" stroke="#333" stroke-width="1"/><rect x="175" y="215" width="40" height="40" fill="#23232f" stroke="#333" stroke-width="1"/><rect x="215" y="215" width="40" height="40" fill="#23232f" stroke="#333" stroke-width="1"/><rect x="255" y="215" width="40" height="40" fill="#23232f" stroke="#333" stroke-width="1"/><rect x="295" y="215" width="40" height="40" fill="#23232f" stroke="#333" stroke-width="1"/><rect x="335" y="215" width="40" height="40" fill="#23232f" stroke="#333" stroke-width="1"/><rect x="15" y="255" width="40" height="40" fill="#23232f" stroke="#333" stroke-width="1"/><rect x="55" y="255" width="40" height="40" fill="#23232f" stroke="#333" stroke-width="1"/><rect x="95" y="255" width="40" height="40" fill="#23232f" stroke="#333" stroke-width="1"/><rect x="135" y="255" width="40" height="40" fill="#23232f" stroke="#333" stroke-width="1"/><rect x="175" y="255" width="40" height="40" fill="#23232f" stroke="#333" stroke-width="1"/><rect x="215" y="255" width="40" height="40" fill="#23232f" stroke="#333" stroke-width="1"/><rect x="255" y="255" width="40" height="40" fill="#23232f" stroke="#333" stroke-width="1"/><rect x="295" y="255" width="40" height="40" fill="#23232f" stroke="#333" stroke-width="1"/><rect x="335" y="255" width="40" height="40" fill="#23232f" stroke="#333" stroke-width="1"/><rect x="15" y="295" width="40" height="40" fill="#23232f" stroke="#333" stroke-width="1"/><rect x="55" y="295" width="40" height="40" fill="#23232f" stroke="#333" stroke-width="1"/><rect x="95" y="295" width="40" height="40" fill="#23232f" stroke="#333" stroke-width="1"/><rect x="135" y="295" width="40" height="40" fill="#23232f" stroke="#333" stroke-width="1"/><rect x="175" y="295" width="40" height="40" fill="#23232f" stroke="#333" stroke-width="1"/><rect x="215" y="295" width="40" height="40" fill="#23232f" stroke="#333" stroke-width="1"/><rect x="255" y="295" width="40" height="40" fill="#23232f" stroke="#333" stroke-width="1"/><rect x="295" y="295" width="40" height="40" fill="#23232f" stroke="#333" stroke-width="1"/><rect x="335" y="295" width="40" height="40" fill="#23232f" stroke="#333" stroke-width="1"/><rect x="15" y="335" width="40" height="40" fill="#23232f" stroke="#333" stroke-width="1"/><rect x="55" y="335" width="40" height="40" fill="#23232f" stroke="#333" stroke-width="1"/><rect x="95" y="335" width="40" height="40" fill="#23232f" stroke="#333" stroke-width="1"/><rect x="135" y="335" width="40" height="40" fill="#23232f" stroke="#333" stroke-width="1"/><rect x="175" y="335" width="40" height="40" fill="#23232f" stroke="#333" stroke-width="1"/><rect x="215" y="335" width="40" height="40" fill="#23232f" stroke="#333" stroke-width="1"/><rect x="255" y="335" width="40" height="40" fill="#23232f" stroke="#333" stroke-width="1"/><rect x="295" y="335" width="40" height="40" fill="#23232f" stroke="#333" stroke-width="1"/><rect x="335" y="335" width="40" height="40" fill="#23232f" stroke="#333" stroke-width="1"/><text x="15" y="410" fill="#c9a7f5" font-size="13" font-family="monospace">suppression field: 0 tiles, phase=?</text><text x="15" y="432" fill="#888" font-size="11" font-family="monospace">purple = muted verbs die here · step out or flip the mute</text></svg>