<svg width="390" height="590" xmlns="http://www.w3.org/2000/svg" font-family="monospace"><rect width="390" height="590" fill="#14141f"/><text x="15" y="22" fill="#eee" font-size="14" font-weight="bold">The Moderator (wave-2 apex) — unknown</text><text x="15" y="38" fill="#aaa" font-size="11">Removal Notice · direct · 6-10dmg · windup 1</text><text x="15" y="52" fill="#c77dff" font-size="11">👁 CONTENT UNDER REVIEW · muted: — · field: 25 tiles</text><text x="15" y="66" fill="#aaa" font-size="11">codex: unknown · round 1</text><text x="15" y="89" fill="#ffd88a" font-size="11">cue: It taps you with the flat of the</text><text x="15" y="104" fill="#ffd88a" font-size="11">hammer, almost gentle. Taking your</text><text x="15" y="119" fill="#ffd88a" font-size="11">measure.</text><rect x="15" y="131" width="40" height="40" fill="#2a2a3e" stroke="#444" stroke-width="1"/><rect x="55" y="131" width="40" height="40" fill="#2a2a3e" stroke="#444" stroke-width="1"/><rect x="95" y="131" width="40" height="40" fill="#2a2a3e" stroke="#444" stroke-width="1"/><rect x="135" y="131" width="40" height="40" fill="#2a2a3e" stroke="#444" stroke-width="1"/><rect x="175" y="131" width="40" height="40" fill="#2a2a3e" stroke="#444" stroke-width="1"/><rect x="215" y="131" width="40" height="40" fill="#2a2a3e" stroke="#444" stroke-width="1"/><rect x="255" y="131" width="40" height="40" fill="#2a2a3e" stroke="#444" stroke-width="1"/><rect x="295" y="131" width="40" height="40" fill="#2a2a3e" stroke="#444" stroke-width="1"/><rect x="335" y="131" width="40" height="40" fill="#2a2a3e" stroke="#444" stroke-width="1"/><rect x="15" y="171" width="40" height="40" fill="#2a2a3e" stroke="#444" stroke-width="1"/><rect x="55" y="171" width="40" height="40" fill="#2a2a3e" stroke="#444" stroke-width="1"/><rect x="95" y="171" width="40" height="40" fill="#2a2a3e" stroke="#444" stroke-width="1"/><rect x="135" y="171" width="40" height="40" fill="#2a2a3e" stroke="#444" stroke-width="1"/><rect x="175" y="171" width="40" height="40" fill="#2a2a3e" stroke="#444" stroke-width="1"/><rect x="215" y="171" width="40" height="40" fill="#2a2a3e" stroke="#444" stroke-width="1"/><rect x="255" y="171" width="40" height="40" fill="#2a2a3e" stroke="#444" stroke-width="1"/><rect x="295" y="171" width="40" height="40" fill="#2a2a3e" stroke="#444" stroke-width="1"/><rect x="335" y="171" width="40" height="40" fill="#2a2a3e" stroke="#444" stroke-width="1"/><rect x="15" y="211" width="40" height="40" fill="#2a2a3e" stroke="#444" stroke-width="1"/><rect x="55" y="211" width="40" height="40" fill="#2a2a3e" stroke="#444" stroke-width="1"/><rect x="95" y="211" width="40" height="40" fill="#2a2a3e" stroke="#444" stroke-width="1"/><rect x="135" y="211" width="40" height="40" fill="#2a2a3e" stroke="#444" stroke-width="1"/><rect x="175" y="211" width="40" height="40" fill="rgba(150,40,180,.28)" stroke="#9d4edd" stroke-width="1"/><text x="195" y="236" text-anchor="middle" font-size="15" fill="#c77dff">⊘</text><rect x="215" y="211" width="40" height="40" fill="rgba(150,40,180,.28)" stroke="#9d4edd" stroke-width="1"/><text x="235" y="236" text-anchor="middle" font-size="15" fill="#c77dff">⊘</text><rect x="255" y="211" width="40" height="40" fill="rgba(150,40,180,.28)" stroke="#9d4edd" stroke-width="1"/><text x="275" y="236" text-anchor="middle" font-size="15" fill="#c77dff">⊘</text><rect x="295" y="211" width="40" height="40" fill="rgba(150,40,180,.28)" stroke="#9d4edd" stroke-width="1"/><text x="315" y="236" text-anchor="middle" font-size="15" fill="#c77dff">⊘</text><rect x="335" y="211" width="40" height="40" fill="rgba(150,40,180,.28)" stroke="#9d4edd" stroke-width="1"/><text x="355" y="236" text-anchor="middle" font-size="15" fill="#c77dff">⊘</text><rect x="15" y="251" width="40" height="40" fill="#2a2a3e" stroke="#444" stroke-width="1"/><rect x="55" y="251" width="40" height="40" fill="#2a2a3e" stroke="#444" stroke-width="1"/><rect x="95" y="251" width="40" height="40" fill="#2a2a3e" stroke="#444" stroke-width="1"/><rect x="135" y="251" width="40" height="40" fill="#2a2a3e" stroke="#444" stroke-width="1"/><rect x="175" y="251" width="40" height="40" fill="rgba(150,40,180,.28)" stroke="#9d4edd" stroke-width="1"/><text x="195" y="276" text-anchor="middle" font-size="15" fill="#c77dff">⊘</text><rect x="215" y="251" width="40" height="40" fill="rgba(150,40,180,.28)" stroke="#9d4edd" stroke-width="1"/><text x="235" y="276" text-anchor="middle" font-size="15" fill="#c77dff">⊘</text><rect x="255" y="251" width="40" height="40" fill="rgba(150,40,180,.28)" stroke="#9d4edd" stroke-width="1"/><text x="275" y="276" text-anchor="middle" font-size="15" fill="#c77dff">⊘</text><rect x="295" y="251" width="40" height="40" fill="rgba(150,40,180,.28)" stroke="#9d4edd" stroke-width="1"/><text x="315" y="276" text-anchor="middle" font-size="15" fill="#c77dff">⊘</text><rect x="335" y="251" width="40" height="40" fill="rgba(150,40,180,.28)" stroke="#9d4edd" stroke-width="1"/><text x="355" y="276" text-anchor="middle" font-size="15" fill="#c77dff">⊘</text><rect x="15" y="291" width="40" height="40" fill="#2a2a3e" stroke="#444" stroke-width="1"/><rect x="55" y="291" width="40" height="40" fill="#2a2a3e" stroke="#444" stroke-width="1"/><rect x="95" y="291" width="40" height="40" fill="#2a2a3e" stroke="#444" stroke-width="1"/><rect x="135" y="291" width="40" height="40" fill="#2a2a3e" stroke="#444" stroke-width="1"/><rect x="175" y="291" width="40" height="40" fill="rgba(150,40,180,.28)" stroke="#9d4edd" stroke-width="1"/><text x="195" y="316" text-anchor="middle" font-size="15" fill="#c77dff">⊘</text><circle cx="195" cy="311" r="13" fill="#f5f5f5" stroke="#111" stroke-width="2"/><text x="195" y="316" text-anchor="middle" font-size="13" font-weight="bold" fill="#111">P</text><rect x="215" y="291" width="40" height="40" fill="rgba(150,40,180,.28)" stroke="#9d4edd" stroke-width="1"/><text x="235" y="316" text-anchor="middle" font-size="15" fill="#c77dff">⊘</text><rect x="255" y="291" width="40" height="40" fill="rgba(150,40,180,.28)" stroke="#9d4edd" stroke-width="1"/><text x="275" y="316" text-anchor="middle" font-size="15" fill="#c77dff">⊘</text><circle cx="275" cy="311" r="13" fill="#c62828" stroke="#fff" stroke-width="2"/><text x="275" y="316" text-anchor="middle" font-size="13" font-weight="bold" fill="#fff">A</text><rect x="295" y="291" width="40" height="40" fill="rgba(150,40,180,.28)" stroke="#9d4edd" stroke-width="1"/><text x="315" y="316" text-anchor="middle" font-size="15" fill="#c77dff">⊘</text><rect x="335" y="291" width="40" height="40" fill="rgba(150,40,180,.28)" stroke="#9d4edd" stroke-width="1"/><text x="355" y="316" text-anchor="middle" font-size="15" fill="#c77dff">⊘</text><rect x="15" y="331" width="40" height="40" fill="#2a2a3e" stroke="#444" stroke-width="1"/><rect x="55" y="331" width="40" height="40" fill="#2a2a3e" stroke="#444" stroke-width="1"/><rect x="95" y="331" width="40" height="40" fill="#2a2a3e" stroke="#444" stroke-width="1"/><rect x="135" y="331" width="40" height="40" fill="#2a2a3e" stroke="#444" stroke-width="1"/><rect x="175" y="331" width="40" height="40" fill="rgba(150,40,180,.28)" stroke="#9d4edd" stroke-width="1"/><text x="195" y="356" text-anchor="middle" font-size="15" fill="#c77dff">⊘</text><rect x="215" y="331" width="40" height="40" fill="rgba(150,40,180,.28)" stroke="#9d4edd" stroke-width="1"/><text x="235" y="356" text-anchor="middle" font-size="15" fill="#c77dff">⊘</text><rect x="255" y="331" width="40" height="40" fill="rgba(150,40,180,.28)" stroke="#9d4edd" stroke-width="1"/><text x="275" y="356" text-anchor="middle" font-size="15" fill="#c77dff">⊘</text><rect x="295" y="331" width="40" height="40" fill="rgba(150,40,180,.28)" stroke="#9d4edd" stroke-width="1"/><text x="315" y="356" text-anchor="middle" font-size="15" fill="#c77dff">⊘</text><rect x="335" y="331" width="40" height="40" fill="rgba(150,40,180,.28)" stroke="#9d4edd" stroke-width="1"/><text x="355" y="356" text-anchor="middle" font-size="15" fill="#c77dff">⊘</text><rect x="15" y="371" width="40" height="40" fill="#2a2a3e" stroke="#444" stroke-width="1"/><rect x="55" y="371" width="40" height="40" fill="#2a2a3e" stroke="#444" stroke-width="1"/><rect x="95" y="371" width="40" height="40" fill="#2a2a3e" stroke="#444" stroke-width="1"/><rect x="135" y="371" width="40" height="40" fill="#2a2a3e" stroke="#444" stroke-width="1"/><rect x="175" y="371" width="40" height="40" fill="rgba(150,40,180,.28)" stroke="#9d4edd" stroke-width="1"/><text x="195" y="396" text-anchor="middle" font-size="15" fill="#c77dff">⊘</text><rect x="215" y="371" width="40" height="40" fill="rgba(150,40,180,.28)" stroke="#9d4edd" stroke-width="1"/><text x="235" y="396" text-anchor="middle" font-size="15" fill="#c77dff">⊘</text><rect x="255" y="371" width="40" height="40" fill="rgba(150,40,180,.28)" stroke="#9d4edd" stroke-width="1"/><text x="275" y="396" text-anchor="middle" font-size="15" fill="#c77dff">⊘</text><rect x="295" y="371" width="40" height="40" fill="rgba(150,40,180,.28)" stroke="#9d4edd" stroke-width="1"/><text x="315" y="396" text-anchor="middle" font-size="15" fill="#c77dff">⊘</text><rect x="335" y="371" width="40" height="40" fill="rgba(150,40,180,.28)" stroke="#9d4edd" stroke-width="1"/><text x="355" y="396" text-anchor="middle" font-size="15" fill="#c77dff">⊘</text><rect x="15" y="411" width="40" height="40" fill="#2a2a3e" stroke="#444" stroke-width="1"/><rect x="55" y="411" width="40" height="40" fill="#2a2a3e" stroke="#444" stroke-width="1"/><rect x="95" y="411" width="40" height="40" fill="#2a2a3e" stroke="#444" stroke-width="1"/><rect x="135" y="411" width="40" height="40" fill="#2a2a3e" stroke="#444" stroke-width="1"/><rect x="175" y="411" width="40" height="40" fill="#2a2a3e" stroke="#444" stroke-width="1"/><rect x="215" y="411" width="40" height="40" fill="#2a2a3e" stroke="#444" stroke-width="1"/><rect x="255" y="411" width="40" height="40" fill="#2a2a3e" stroke="#444" stroke-width="1"/><rect x="295" y="411" width="40" height="40" fill="#2a2a3e" stroke="#444" stroke-width="1"/><rect x="335" y="411" width="40" height="40" fill="#2a2a3e" stroke="#444" stroke-width="1"/><rect x="15" y="451" width="40" height="40" fill="#2a2a3e" stroke="#444" stroke-width="1"/><rect x="55" y="451" width="40" height="40" fill="#2a2a3e" stroke="#444" stroke-width="1"/><rect x="95" y="451" width="40" height="40" fill="#2a2a3e" stroke="#444" stroke-width="1"/><rect x="135" y="451" width="40" height="40" fill="#2a2a3e" stroke="#444" stroke-width="1"/><rect x="175" y="451" width="40" height="40" fill="#2a2a3e" stroke="#444" stroke-width="1"/><rect x="215" y="451" width="40" height="40" fill="#2a2a3e" stroke="#444" stroke-width="1"/><rect x="255" y="451" width="40" height="40" fill="#2a2a3e" stroke="#444" stroke-width="1"/><rect x="295" y="451" width="40" height="40" fill="#2a2a3e" stroke="#444" stroke-width="1"/><rect x="335" y="451" width="40" height="40" fill="#2a2a3e" stroke="#444" stroke-width="1"/><text x="15" y="513" fill="#888" font-size="10">legend:</text><rect x="15" y="517" width="10" height="10" fill="#9d4edd" stroke="#555" stroke-width="1"/><text x="30" y="527" fill="#aaa" font-size="10">⊘ suppression field (mute holds)</text><rect x="15" y="532" width="10" height="10" fill="#3a2b52" stroke="#555" stroke-width="1"/><text x="30" y="542" fill="#aaa" font-size="10">◾ shadowban (rejects you, 2)</text><rect x="15" y="547" width="10" height="10" fill="#e0aaff" stroke="#555" stroke-width="1"/><text x="30" y="557" fill="#aaa" font-size="10">lockOn ring: the Notice (known only)</text><text x="15" y="578" fill="#666" font-size="10">visual proof 2026-10-06 — real combat, app.js bucket routing + real terraform</text></svg>