<svg width="390" height="700" xmlns="http://www.w3.org/2000/svg"><defs></defs><rect width="390" height="640" fill="#1a1a2e"/><text x="195" y="30" text-anchor="middle" fill="#eee" font-size="16" font-family="DejaVu Sans" font-weight="bold">Inspiration — Eureka</text><text x="195" y="52" text-anchor="middle" fill="#8af" font-size="11" font-family="DejaVu Sans">pattern: burst · learned = shown</text><text x="195" y="70" text-anchor="middle" fill="#fd8" font-size="11" font-family="DejaVu Sans">biHot — white-hot last tick</text><rect x="33" y="108" width="36" height="36" fill="#2a2a3e" stroke="#444" stroke-width="1"/><rect x="69" y="108" width="36" height="36" fill="#2a2a3e" stroke="#444" stroke-width="1"/><rect x="105" y="108" width="36" height="36" fill="#2a2a3e" stroke="#444" stroke-width="1"/><rect x="106" y="109" width="34" height="34" fill="rgba(255,255,255,0.42)" stroke="#ffffff" stroke-width="3"/><rect x="111" y="114" width="24" height="24" fill="rgba(255,255,255,0.95)" opacity="0.5"/><rect x="141" y="108" width="36" height="36" fill="#2a2a3e" stroke="#444" stroke-width="1"/><rect x="142" y="109" width="34" height="34" fill="rgba(255,255,255,0.42)" stroke="#ffffff" stroke-width="3"/><rect x="147" y="114" width="24" height="24" fill="rgba(255,255,255,0.95)" opacity="0.5"/><rect x="177" y="108" width="36" height="36" fill="#2a2a3e" stroke="#444" stroke-width="1"/><rect x="178" y="109" width="34" height="34" fill="rgba(255,255,255,0.42)" stroke="#ffffff" stroke-width="3"/><rect x="183" y="114" width="24" height="24" fill="rgba(255,255,255,0.95)" opacity="0.5"/><rect x="213" y="108" width="36" height="36" fill="#2a2a3e" stroke="#444" stroke-width="1"/><rect x="214" y="109" width="34" height="34" fill="rgba(255,255,255,0.42)" stroke="#ffffff" stroke-width="3"/><rect x="219" y="114" width="24" height="24" fill="rgba(255,255,255,0.95)" opacity="0.5"/><rect x="249" y="108" width="36" height="36" fill="#2a2a3e" stroke="#444" stroke-width="1"/><rect x="250" y="109" width="34" height="34" fill="rgba(255,255,255,0.42)" stroke="#ffffff" stroke-width="3"/><rect x="255" y="114" width="24" height="24" fill="rgba(255,255,255,0.95)" opacity="0.5"/><rect x="285" y="108" width="36" height="36" fill="#2a2a3e" stroke="#444" stroke-width="1"/><rect x="321" y="108" width="36" height="36" fill="#2a2a3e" stroke="#444" stroke-width="1"/><rect x="33" y="144" width="36" height="36" fill="#2a2a3e" stroke="#444" stroke-width="1"/><rect x="69" y="144" width="36" height="36" fill="#2a2a3e" stroke="#444" stroke-width="1"/><rect x="105" y="144" width="36" height="36" fill="#2a2a3e" stroke="#444" stroke-width="1"/><rect x="106" y="145" width="34" height="34" fill="rgba(255,255,255,0.42)" stroke="#ffffff" stroke-width="3"/><rect x="111" y="150" width="24" height="24" fill="rgba(255,255,255,0.95)" opacity="0.5"/><rect x="141" y="144" width="36" height="36" fill="#2a2a3e" stroke="#444" stroke-width="1"/><rect x="142" y="145" width="34" height="34" fill="rgba(255,255,255,0.42)" stroke="#ffffff" stroke-width="3"/><rect x="147" y="150" width="24" height="24" fill="rgba(255,255,255,0.95)" opacity="0.5"/><rect x="177" y="144" width="36" height="36" fill="#2a2a3e" stroke="#444" stroke-width="1"/><rect x="178" y="145" width="34" height="34" fill="rgba(255,255,255,0.42)" stroke="#ffffff" stroke-width="3"/><rect x="183" y="150" width="24" height="24" fill="rgba(255,255,255,0.95)" opacity="0.5"/><rect x="213" y="144" width="36" height="36" fill="#2a2a3e" stroke="#444" stroke-width="1"/><rect x="214" y="145" width="34" height="34" fill="rgba(255,255,255,0.42)" stroke="#ffffff" stroke-width="3"/><rect x="219" y="150" width="24" height="24" fill="rgba(255,255,255,0.95)" opacity="0.5"/><rect x="249" y="144" width="36" height="36" fill="#2a2a3e" stroke="#444" stroke-width="1"/><rect x="250" y="145" width="34" height="34" fill="rgba(255,255,255,0.42)" stroke="#ffffff" stroke-width="3"/><rect x="255" y="150" width="24" height="24" fill="rgba(255,255,255,0.95)" opacity="0.5"/><rect x="285" y="144" width="36" height="36" fill="#2a2a3e" stroke="#444" stroke-width="1"/><rect x="321" y="144" width="36" height="36" fill="#2a2a3e" stroke="#444" stroke-width="1"/><rect x="33" y="180" width="36" height="36" fill="#2a2a3e" stroke="#444" stroke-width="1"/><rect x="69" y="180" width="36" height="36" fill="#2a2a3e" stroke="#444" stroke-width="1"/><rect x="105" y="180" width="36" height="36" fill="#2a2a3e" stroke="#444" stroke-width="1"/><rect x="106" y="181" width="34" height="34" fill="rgba(255,255,255,0.42)" stroke="#ffffff" stroke-width="3"/><rect x="111" y="186" width="24" height="24" fill="rgba(255,255,255,0.95)" opacity="0.5"/><rect x="141" y="180" width="36" height="36" fill="#2a2a3e" stroke="#444" stroke-width="1"/><rect x="142" y="181" width="34" height="34" fill="rgba(255,255,255,0.42)" stroke="#ffffff" stroke-width="3"/><rect x="147" y="186" width="24" height="24" fill="rgba(255,255,255,0.95)" opacity="0.5"/><rect x="177" y="180" width="36" height="36" fill="#2a2a3e" stroke="#444" stroke-width="1"/><rect x="178" y="181" width="34" height="34" fill="rgba(255,255,255,0.42)" stroke="#ffffff" stroke-width="3"/><rect x="183" y="186" width="24" height="24" fill="rgba(255,255,255,0.95)" opacity="0.5"/><rect x="213" y="180" width="36" height="36" fill="#2a2a3e" stroke="#444" stroke-width="1"/><rect x="214" y="181" width="34" height="34" fill="rgba(255,255,255,0.42)" stroke="#ffffff" stroke-width="3"/><rect x="219" y="186" width="24" height="24" fill="rgba(255,255,255,0.95)" opacity="0.5"/><rect x="249" y="180" width="36" height="36" fill="#2a2a3e" stroke="#444" stroke-width="1"/><rect x="250" y="181" width="34" height="34" fill="rgba(255,255,255,0.42)" stroke="#ffffff" stroke-width="3"/><rect x="255" y="186" width="24" height="24" fill="rgba(255,255,255,0.95)" opacity="0.5"/><rect x="285" y="180" width="36" height="36" fill="#2a2a3e" stroke="#444" stroke-width="1"/><rect x="321" y="180" width="36" height="36" fill="#2a2a3e" stroke="#444" stroke-width="1"/><rect x="33" y="216" width="36" height="36" fill="#2a2a3e" stroke="#444" stroke-width="1"/><rect x="69" y="216" width="36" height="36" fill="#2a2a3e" stroke="#444" stroke-width="1"/><rect x="105" y="216" width="36" height="36" fill="#2a2a3e" stroke="#444" stroke-width="1"/><rect x="106" y="217" width="34" height="34" fill="rgba(255,255,255,0.42)" stroke="#ffffff" stroke-width="3"/><rect x="111" y="222" width="24" height="24" fill="rgba(255,255,255,0.95)" opacity="0.5"/><rect x="141" y="216" width="36" height="36" fill="#2a2a3e" stroke="#444" stroke-width="1"/><rect x="142" y="217" width="34" height="34" fill="rgba(255,255,255,0.42)" stroke="#ffffff" stroke-width="3"/><rect x="147" y="222" width="24" height="24" fill="rgba(255,255,255,0.95)" opacity="0.5"/><rect x="177" y="216" width="36" height="36" fill="#2a2a3e" stroke="#444" stroke-width="1"/><rect x="178" y="217" width="34" height="34" fill="rgba(255,255,255,0.42)" stroke="#ffffff" stroke-width="3"/><rect x="183" y="222" width="24" height="24" fill="rgba(255,255,255,0.95)" opacity="0.5"/><rect x="213" y="216" width="36" height="36" fill="#2a2a3e" stroke="#444" stroke-width="1"/><rect x="214" y="217" width="34" height="34" fill="rgba(255,255,255,0.42)" stroke="#ffffff" stroke-width="3"/><rect x="219" y="222" width="24" height="24" fill="rgba(255,255,255,0.95)" opacity="0.5"/><rect x="249" y="216" width="36" height="36" fill="#2a2a3e" stroke="#444" stroke-width="1"/><rect x="250" y="217" width="34" height="34" fill="rgba(255,255,255,0.42)" stroke="#ffffff" stroke-width="3"/><rect x="255" y="222" width="24" height="24" fill="rgba(255,255,255,0.95)" opacity="0.5"/><rect x="285" y="216" width="36" height="36" fill="#2a2a3e" stroke="#444" stroke-width="1"/><rect x="321" y="216" width="36" height="36" fill="#2a2a3e" stroke="#444" stroke-width="1"/><rect x="33" y="252" width="36" height="36" fill="#2a2a3e" stroke="#444" stroke-width="1"/><rect x="69" y="252" width="36" height="36" fill="#2a2a3e" stroke="#444" stroke-width="1"/><rect x="105" y="252" width="36" height="36" fill="#2a2a3e" stroke="#444" stroke-width="1"/><rect x="106" y="253" width="34" height="34" fill="rgba(255,255,255,0.42)" stroke="#ffffff" stroke-width="3"/><rect x="111" y="258" width="24" height="24" fill="rgba(255,255,255,0.95)" opacity="0.5"/><rect x="141" y="252" width="36" height="36" fill="#2a2a3e" stroke="#444" stroke-width="1"/><rect x="142" y="253" width="34" height="34" fill="rgba(255,255,255,0.42)" stroke="#ffffff" stroke-width="3"/><rect x="147" y="258" width="24" height="24" fill="rgba(255,255,255,0.95)" opacity="0.5"/><rect x="177" y="252" width="36" height="36" fill="#2a2a3e" stroke="#444" stroke-width="1"/><rect x="178" y="253" width="34" height="34" fill="rgba(255,255,255,0.42)" stroke="#ffffff" stroke-width="3"/><rect x="183" y="258" width="24" height="24" fill="rgba(255,255,255,0.95)" opacity="0.5"/><rect x="213" y="252" width="36" height="36" fill="#2a2a3e" stroke="#444" stroke-width="1"/><rect x="214" y="253" width="34" height="34" fill="rgba(255,255,255,0.42)" stroke="#ffffff" stroke-width="3"/><rect x="219" y="258" width="24" height="24" fill="rgba(255,255,255,0.95)" opacity="0.5"/><rect x="249" y="252" width="36" height="36" fill="#2a2a3e" stroke="#444" stroke-width="1"/><rect x="250" y="253" width="34" height="34" fill="rgba(255,255,255,0.42)" stroke="#ffffff" stroke-width="3"/><rect x="255" y="258" width="24" height="24" fill="rgba(255,255,255,0.95)" opacity="0.5"/><rect x="285" y="252" width="36" height="36" fill="#2a2a3e" stroke="#444" stroke-width="1"/><rect x="321" y="252" width="36" height="36" fill="#2a2a3e" stroke="#444" stroke-width="1"/><rect x="33" y="288" width="36" height="36" fill="#2a2a3e" stroke="#444" stroke-width="1"/><rect x="69" y="288" width="36" height="36" fill="#2a2a3e" stroke="#444" stroke-width="1"/><rect x="105" y="288" width="36" height="36" fill="#2a2a3e" stroke="#444" stroke-width="1"/><rect x="141" y="288" width="36" height="36" fill="#2a2a3e" stroke="#444" stroke-width="1"/><rect x="177" y="288" width="36" height="36" fill="#2a2a3e" stroke="#444" stroke-width="1"/><rect x="213" y="288" width="36" height="36" fill="#2a2a3e" stroke="#444" stroke-width="1"/><rect x="249" y="288" width="36" height="36" fill="#2a2a3e" stroke="#444" stroke-width="1"/><rect x="285" y="288" width="36" height="36" fill="#2a2a3e" stroke="#444" stroke-width="1"/><rect x="321" y="288" width="36" height="36" fill="#2a2a3e" stroke="#444" stroke-width="1"/><rect x="33" y="324" width="36" height="36" fill="#2a2a3e" stroke="#444" stroke-width="1"/><rect x="69" y="324" width="36" height="36" fill="#2a2a3e" stroke="#444" stroke-width="1"/><rect x="105" y="324" width="36" height="36" fill="#2a2a3e" stroke="#444" stroke-width="1"/><rect x="141" y="324" width="36" height="36" fill="#2a2a3e" stroke="#444" stroke-width="1"/><rect x="177" y="324" width="36" height="36" fill="#2a2a3e" stroke="#444" stroke-width="1"/><rect x="213" y="324" width="36" height="36" fill="#2a2a3e" stroke="#444" stroke-width="1"/><rect x="249" y="324" width="36" height="36" fill="#2a2a3e" stroke="#444" stroke-width="1"/><rect x="285" y="324" width="36" height="36" fill="#2a2a3e" stroke="#444" stroke-width="1"/><rect x="321" y="324" width="36" height="36" fill="#2a2a3e" stroke="#444" stroke-width="1"/><rect x="33" y="360" width="36" height="36" fill="#2a2a3e" stroke="#444" stroke-width="1"/><rect x="69" y="360" width="36" height="36" fill="#2a2a3e" stroke="#444" stroke-width="1"/><rect x="105" y="360" width="36" height="36" fill="#2a2a3e" stroke="#444" stroke-width="1"/><rect x="141" y="360" width="36" height="36" fill="#2a2a3e" stroke="#444" stroke-width="1"/><rect x="177" y="360" width="36" height="36" fill="#2a2a3e" stroke="#444" stroke-width="1"/><rect x="213" y="360" width="36" height="36" fill="#2a2a3e" stroke="#444" stroke-width="1"/><rect x="249" y="360" width="36" height="36" fill="#2a2a3e" stroke="#444" stroke-width="1"/><rect x="285" y="360" width="36" height="36" fill="#2a2a3e" stroke="#444" stroke-width="1"/><rect x="321" y="360" width="36" height="36" fill="#2a2a3e" stroke="#444" stroke-width="1"/><rect x="33" y="396" width="36" height="36" fill="#2a2a3e" stroke="#444" stroke-width="1"/><rect x="69" y="396" width="36" height="36" fill="#2a2a3e" stroke="#444" stroke-width="1"/><rect x="105" y="396" width="36" height="36" fill="#2a2a3e" stroke="#444" stroke-width="1"/><rect x="141" y="396" width="36" height="36" fill="#2a2a3e" stroke="#444" stroke-width="1"/><rect x="177" y="396" width="36" height="36" fill="#2a2a3e" stroke="#444" stroke-width="1"/><rect x="213" y="396" width="36" height="36" fill="#2a2a3e" stroke="#444" stroke-width="1"/><rect x="249" y="396" width="36" height="36" fill="#2a2a3e" stroke="#444" stroke-width="1"/><rect x="285" y="396" width="36" height="36" fill="#2a2a3e" stroke="#444" stroke-width="1"/><rect x="321" y="396" width="36" height="36" fill="#2a2a3e" stroke="#444" stroke-width="1"/><text x="195" y="208" text-anchor="middle" font-size="24" font-family="DejaVu Sans">🔆</text><text x="195" y="280" text-anchor="middle" font-size="24" font-family="DejaVu Sans">●</text><text x="20" y="462" fill="#aaa" font-size="11" font-family="DejaVu Sans" font-style="italic">“It sits perfectly still, glowing brighter</text><text x="20" y="478" fill="#aaa" font-size="11" font-family="DejaVu Sans" font-style="italic">“and brighter. A beautiful idea, taking</text><text x="20" y="494" fill="#aaa" font-size="11" font-family="DejaVu Sans" font-style="italic">“shape. You can feel the brilliance building.”</text><text x="20" y="524" fill="#666" font-size="10" font-family="DejaVu Sans">25 telegraph cells · 390px mobile</text></svg>