<svg width="390" height="700" xmlns="http://www.w3.org/2000/svg"><defs><pattern id="p10s" patternUnits="userSpaceOnUse" width="12" height="12" patternTransform="rotate(45)"><rect width="12" height="12" fill="#ff5a5a" opacity="0.12"/><rect width="6" height="12" fill="#ff5a5a" opacity="0.42"/></pattern></defs><rect width="390" height="640" fill="#1a1a2e"/><text x="195" y="30" text-anchor="middle" fill="#eee" font-size="16" font-family="DejaVu Sans" font-weight="bold">The Landlord — Eviction Notice</text><text x="195" y="52" text-anchor="middle" fill="#8af" font-size="11" font-family="DejaVu Sans">pattern: direct · learned = shown</text><text x="195" y="70" text-anchor="middle" fill="#fd8" font-size="11" font-family="DejaVu Sans">w2bLord — eviction red tape §</text><rect x="33" y="108" width="36" height="36" fill="#2a2a3e" stroke="#444" stroke-width="1"/><rect x="69" y="108" width="36" height="36" fill="#2a2a3e" stroke="#444" stroke-width="1"/><rect x="105" y="108" width="36" height="36" fill="#2a2a3e" stroke="#444" stroke-width="1"/><rect x="141" y="108" width="36" height="36" fill="#2a2a3e" stroke="#444" stroke-width="1"/><rect x="177" y="108" width="36" height="36" fill="#2a2a3e" stroke="#444" stroke-width="1"/><rect x="213" y="108" width="36" height="36" fill="#2a2a3e" stroke="#444" stroke-width="1"/><rect x="249" y="108" width="36" height="36" fill="#2a2a3e" stroke="#444" stroke-width="1"/><rect x="285" y="108" width="36" height="36" fill="#2a2a3e" stroke="#444" stroke-width="1"/><rect x="321" y="108" width="36" height="36" fill="#2a2a3e" stroke="#444" stroke-width="1"/><rect x="33" y="144" width="36" height="36" fill="#2a2a3e" stroke="#444" stroke-width="1"/><rect x="69" y="144" width="36" height="36" fill="#2a2a3e" stroke="#444" stroke-width="1"/><rect x="105" y="144" width="36" height="36" fill="#2a2a3e" stroke="#444" stroke-width="1"/><rect x="141" y="144" width="36" height="36" fill="#2a2a3e" stroke="#444" stroke-width="1"/><rect x="177" y="144" width="36" height="36" fill="#2a2a3e" stroke="#444" stroke-width="1"/><rect x="213" y="144" width="36" height="36" fill="#2a2a3e" stroke="#444" stroke-width="1"/><rect x="249" y="144" width="36" height="36" fill="#2a2a3e" stroke="#444" stroke-width="1"/><rect x="285" y="144" width="36" height="36" fill="#2a2a3e" stroke="#444" stroke-width="1"/><rect x="321" y="144" width="36" height="36" fill="#2a2a3e" stroke="#444" stroke-width="1"/><rect x="33" y="180" width="36" height="36" fill="#2a2a3e" stroke="#444" stroke-width="1"/><rect x="69" y="180" width="36" height="36" fill="#2a2a3e" stroke="#444" stroke-width="1"/><rect x="105" y="180" width="36" height="36" fill="#2a2a3e" stroke="#444" stroke-width="1"/><rect x="141" y="180" width="36" height="36" fill="#2a2a3e" stroke="#444" stroke-width="1"/><rect x="177" y="180" width="36" height="36" fill="#2a2a3e" stroke="#444" stroke-width="1"/><rect x="213" y="180" width="36" height="36" fill="#2a2a3e" stroke="#444" stroke-width="1"/><rect x="249" y="180" width="36" height="36" fill="#2a2a3e" stroke="#444" stroke-width="1"/><rect x="285" y="180" width="36" height="36" fill="#2a2a3e" stroke="#444" stroke-width="1"/><rect x="321" y="180" width="36" height="36" fill="#2a2a3e" stroke="#444" stroke-width="1"/><rect x="33" y="216" width="36" height="36" fill="#2a2a3e" stroke="#444" stroke-width="1"/><rect x="69" y="216" width="36" height="36" fill="#2a2a3e" stroke="#444" stroke-width="1"/><rect x="105" y="216" width="36" height="36" fill="#2a2a3e" stroke="#444" stroke-width="1"/><rect x="141" y="216" width="36" height="36" fill="#2a2a3e" stroke="#444" stroke-width="1"/><rect x="177" y="216" width="36" height="36" fill="#2a2a3e" stroke="#444" stroke-width="1"/><rect x="213" y="216" width="36" height="36" fill="#2a2a3e" stroke="#444" stroke-width="1"/><rect x="249" y="216" width="36" height="36" fill="#2a2a3e" stroke="#444" stroke-width="1"/><rect x="285" y="216" width="36" height="36" fill="#2a2a3e" stroke="#444" stroke-width="1"/><rect x="321" y="216" width="36" height="36" fill="#2a2a3e" stroke="#444" stroke-width="1"/><rect x="33" y="252" width="36" height="36" fill="#2a2a3e" stroke="#444" stroke-width="1"/><rect x="69" y="252" width="36" height="36" fill="#2a2a3e" stroke="#444" stroke-width="1"/><rect x="105" y="252" width="36" height="36" fill="#2a2a3e" stroke="#444" stroke-width="1"/><rect x="141" y="252" width="36" height="36" fill="#2a2a3e" stroke="#444" stroke-width="1"/><rect x="177" y="252" width="36" height="36" fill="#2a2a3e" stroke="#444" stroke-width="1"/><rect x="178" y="253" width="34" height="34" fill="url(#p10s)" stroke="#ff5a5a" stroke-width="2"/><rect x="213" y="252" width="36" height="36" fill="#2a2a3e" stroke="#444" stroke-width="1"/><rect x="249" y="252" width="36" height="36" fill="#2a2a3e" stroke="#444" stroke-width="1"/><rect x="285" y="252" width="36" height="36" fill="#2a2a3e" stroke="#444" stroke-width="1"/><rect x="321" y="252" width="36" height="36" fill="#2a2a3e" stroke="#444" stroke-width="1"/><rect x="33" y="288" width="36" height="36" fill="#2a2a3e" stroke="#444" stroke-width="1"/><rect x="69" y="288" width="36" height="36" fill="#2a2a3e" stroke="#444" stroke-width="1"/><rect x="105" y="288" width="36" height="36" fill="#2a2a3e" stroke="#444" stroke-width="1"/><rect x="141" y="288" width="36" height="36" fill="#2a2a3e" stroke="#444" stroke-width="1"/><rect x="177" y="288" width="36" height="36" fill="#2a2a3e" stroke="#444" stroke-width="1"/><rect x="213" y="288" width="36" height="36" fill="#2a2a3e" stroke="#444" stroke-width="1"/><rect x="249" y="288" width="36" height="36" fill="#2a2a3e" stroke="#444" stroke-width="1"/><rect x="285" y="288" width="36" height="36" fill="#2a2a3e" stroke="#444" stroke-width="1"/><rect x="321" y="288" width="36" height="36" fill="#2a2a3e" stroke="#444" stroke-width="1"/><rect x="33" y="324" width="36" height="36" fill="#2a2a3e" stroke="#444" stroke-width="1"/><rect x="69" y="324" width="36" height="36" fill="#2a2a3e" stroke="#444" stroke-width="1"/><rect x="105" y="324" width="36" height="36" fill="#2a2a3e" stroke="#444" stroke-width="1"/><rect x="141" y="324" width="36" height="36" fill="#2a2a3e" stroke="#444" stroke-width="1"/><rect x="177" y="324" width="36" height="36" fill="#2a2a3e" stroke="#444" stroke-width="1"/><rect x="213" y="324" width="36" height="36" fill="#2a2a3e" stroke="#444" stroke-width="1"/><rect x="249" y="324" width="36" height="36" fill="#2a2a3e" stroke="#444" stroke-width="1"/><rect x="285" y="324" width="36" height="36" fill="#2a2a3e" stroke="#444" stroke-width="1"/><rect x="321" y="324" width="36" height="36" fill="#2a2a3e" stroke="#444" stroke-width="1"/><rect x="33" y="360" width="36" height="36" fill="#2a2a3e" stroke="#444" stroke-width="1"/><rect x="69" y="360" width="36" height="36" fill="#2a2a3e" stroke="#444" stroke-width="1"/><rect x="105" y="360" width="36" height="36" fill="#2a2a3e" stroke="#444" stroke-width="1"/><rect x="141" y="360" width="36" height="36" fill="#2a2a3e" stroke="#444" stroke-width="1"/><rect x="177" y="360" width="36" height="36" fill="#2a2a3e" stroke="#444" stroke-width="1"/><rect x="213" y="360" width="36" height="36" fill="#2a2a3e" stroke="#444" stroke-width="1"/><rect x="249" y="360" width="36" height="36" fill="#2a2a3e" stroke="#444" stroke-width="1"/><rect x="285" y="360" width="36" height="36" fill="#2a2a3e" stroke="#444" stroke-width="1"/><rect x="321" y="360" width="36" height="36" fill="#2a2a3e" stroke="#444" stroke-width="1"/><rect x="33" y="396" width="36" height="36" fill="#2a2a3e" stroke="#444" stroke-width="1"/><rect x="69" y="396" width="36" height="36" fill="#2a2a3e" stroke="#444" stroke-width="1"/><rect x="105" y="396" width="36" height="36" fill="#2a2a3e" stroke="#444" stroke-width="1"/><rect x="141" y="396" width="36" height="36" fill="#2a2a3e" stroke="#444" stroke-width="1"/><rect x="177" y="396" width="36" height="36" fill="#2a2a3e" stroke="#444" stroke-width="1"/><rect x="213" y="396" width="36" height="36" fill="#2a2a3e" stroke="#444" stroke-width="1"/><rect x="249" y="396" width="36" height="36" fill="#2a2a3e" stroke="#444" stroke-width="1"/><rect x="285" y="396" width="36" height="36" fill="#2a2a3e" stroke="#444" stroke-width="1"/><rect x="321" y="396" width="36" height="36" fill="#2a2a3e" stroke="#444" stroke-width="1"/><text x="267" y="280" text-anchor="middle" font-size="24" font-family="DejaVu Sans">🏚️</text><text x="195" y="280" text-anchor="middle" font-size="24" font-family="DejaVu Sans">●</text><circle cx="195" cy="270" r="15" fill="none" stroke="#ff5a5a" stroke-width="3" opacity="0.95"/><text x="195" y="276" text-anchor="middle" font-size="16" font-family="DejaVu Sans" fill="#ffd7d7">§</text><text x="20" y="462" fill="#aaa" font-size="11" font-family="DejaVu Sans" font-style="italic">“It hammers another sign into the dirt. The</text><text x="20" y="478" fill="#aaa" font-size="11" font-family="DejaVu Sans" font-style="italic">“sign has your name on it. It always had your</text><text x="20" y="494" fill="#aaa" font-size="11" font-family="DejaVu Sans" font-style="italic">“name on it.”</text><text x="20" y="524" fill="#666" font-size="10" font-family="DejaVu Sans">1 telegraph cells · 390px mobile</text></svg>