<svg width="390" height="700" xmlns="http://www.w3.org/2000/svg"><defs></defs><rect width="390" height="640" fill="#1a1a2e"/><text x="195" y="30" text-anchor="middle" fill="#eee" font-size="16" font-family="DejaVu Sans" font-weight="bold">Nostalgia — Home Movies</text><text x="195" y="52" text-anchor="middle" fill="#8af" font-size="11" font-family="DejaVu Sans">pattern: beam · learned = shown</text><text x="195" y="70" text-anchor="middle" fill="#fd8" font-size="11" font-family="DejaVu Sans">mpBeam — warm amber home-light</text><rect x="33" y="108" width="36" height="36" fill="#2a2a3e" stroke="#444" stroke-width="1"/><rect x="69" y="108" width="36" height="36" fill="#2a2a3e" stroke="#444" stroke-width="1"/><rect x="105" y="108" width="36" height="36" fill="#2a2a3e" stroke="#444" stroke-width="1"/><rect x="141" y="108" width="36" height="36" fill="#2a2a3e" stroke="#444" stroke-width="1"/><rect x="177" y="108" width="36" height="36" fill="#2a2a3e" stroke="#444" stroke-width="1"/><rect x="213" y="108" width="36" height="36" fill="#2a2a3e" stroke="#444" stroke-width="1"/><rect x="249" y="108" width="36" height="36" fill="#2a2a3e" stroke="#444" stroke-width="1"/><rect x="285" y="108" width="36" height="36" fill="#2a2a3e" stroke="#444" stroke-width="1"/><rect x="321" y="108" width="36" height="36" fill="#2a2a3e" stroke="#444" stroke-width="1"/><rect x="33" y="144" width="36" height="36" fill="#2a2a3e" stroke="#444" stroke-width="1"/><rect x="69" y="144" width="36" height="36" fill="#2a2a3e" stroke="#444" stroke-width="1"/><rect x="105" y="144" width="36" height="36" fill="#2a2a3e" stroke="#444" stroke-width="1"/><rect x="141" y="144" width="36" height="36" fill="#2a2a3e" stroke="#444" stroke-width="1"/><rect x="177" y="144" width="36" height="36" fill="#2a2a3e" stroke="#444" stroke-width="1"/><rect x="178" y="145" width="34" height="34" fill="rgba(255,190,110,0.16)" stroke="#ffca7a" stroke-width="2"/><rect x="182" y="149" width="26" height="26" fill="none" stroke="#ffca7a" stroke-width="3" opacity="0.45"/><rect x="213" y="144" width="36" height="36" fill="#2a2a3e" stroke="#444" stroke-width="1"/><rect x="249" y="144" width="36" height="36" fill="#2a2a3e" stroke="#444" stroke-width="1"/><rect x="285" y="144" width="36" height="36" fill="#2a2a3e" stroke="#444" stroke-width="1"/><rect x="321" y="144" width="36" height="36" fill="#2a2a3e" stroke="#444" stroke-width="1"/><rect x="33" y="180" width="36" height="36" fill="#2a2a3e" stroke="#444" stroke-width="1"/><rect x="69" y="180" width="36" height="36" fill="#2a2a3e" stroke="#444" stroke-width="1"/><rect x="105" y="180" width="36" height="36" fill="#2a2a3e" stroke="#444" stroke-width="1"/><rect x="141" y="180" width="36" height="36" fill="#2a2a3e" stroke="#444" stroke-width="1"/><rect x="177" y="180" width="36" height="36" fill="#2a2a3e" stroke="#444" stroke-width="1"/><rect x="178" y="181" width="34" height="34" fill="rgba(255,190,110,0.16)" stroke="#ffca7a" stroke-width="2"/><rect x="182" y="185" width="26" height="26" fill="none" stroke="#ffca7a" stroke-width="3" opacity="0.45"/><rect x="213" y="180" width="36" height="36" fill="#2a2a3e" stroke="#444" stroke-width="1"/><rect x="249" y="180" width="36" height="36" fill="#2a2a3e" stroke="#444" stroke-width="1"/><rect x="285" y="180" width="36" height="36" fill="#2a2a3e" stroke="#444" stroke-width="1"/><rect x="321" y="180" width="36" height="36" fill="#2a2a3e" stroke="#444" stroke-width="1"/><rect x="33" y="216" width="36" height="36" fill="#2a2a3e" stroke="#444" stroke-width="1"/><rect x="69" y="216" width="36" height="36" fill="#2a2a3e" stroke="#444" stroke-width="1"/><rect x="105" y="216" width="36" height="36" fill="#2a2a3e" stroke="#444" stroke-width="1"/><rect x="141" y="216" width="36" height="36" fill="#2a2a3e" stroke="#444" stroke-width="1"/><rect x="177" y="216" width="36" height="36" fill="#2a2a3e" stroke="#444" stroke-width="1"/><rect x="178" y="217" width="34" height="34" fill="rgba(255,190,110,0.16)" stroke="#ffca7a" stroke-width="2"/><rect x="182" y="221" width="26" height="26" fill="none" stroke="#ffca7a" stroke-width="3" opacity="0.45"/><rect x="213" y="216" width="36" height="36" fill="#2a2a3e" stroke="#444" stroke-width="1"/><rect x="249" y="216" width="36" height="36" fill="#2a2a3e" stroke="#444" stroke-width="1"/><rect x="285" y="216" width="36" height="36" fill="#2a2a3e" stroke="#444" stroke-width="1"/><rect x="321" y="216" width="36" height="36" fill="#2a2a3e" stroke="#444" stroke-width="1"/><rect x="33" y="252" width="36" height="36" fill="#2a2a3e" stroke="#444" stroke-width="1"/><rect x="69" y="252" width="36" height="36" fill="#2a2a3e" stroke="#444" stroke-width="1"/><rect x="105" y="252" width="36" height="36" fill="#2a2a3e" stroke="#444" stroke-width="1"/><rect x="141" y="252" width="36" height="36" fill="#2a2a3e" stroke="#444" stroke-width="1"/><rect x="177" y="252" width="36" height="36" fill="#2a2a3e" stroke="#444" stroke-width="1"/><rect x="178" y="253" width="34" height="34" fill="rgba(255,190,110,0.16)" stroke="#ffca7a" stroke-width="2"/><rect x="182" y="257" width="26" height="26" fill="none" stroke="#ffca7a" stroke-width="3" opacity="0.45"/><rect x="213" y="252" width="36" height="36" fill="#2a2a3e" stroke="#444" stroke-width="1"/><rect x="249" y="252" width="36" height="36" fill="#2a2a3e" stroke="#444" stroke-width="1"/><rect x="285" y="252" width="36" height="36" fill="#2a2a3e" stroke="#444" stroke-width="1"/><rect x="321" y="252" width="36" height="36" fill="#2a2a3e" stroke="#444" stroke-width="1"/><rect x="33" y="288" width="36" height="36" fill="#2a2a3e" stroke="#444" stroke-width="1"/><rect x="69" y="288" width="36" height="36" fill="#2a2a3e" stroke="#444" stroke-width="1"/><rect x="105" y="288" width="36" height="36" fill="#2a2a3e" stroke="#444" stroke-width="1"/><rect x="141" y="288" width="36" height="36" fill="#2a2a3e" stroke="#444" stroke-width="1"/><rect x="177" y="288" width="36" height="36" fill="#2a2a3e" stroke="#444" stroke-width="1"/><rect x="178" y="289" width="34" height="34" fill="rgba(255,190,110,0.16)" stroke="#ffca7a" stroke-width="2"/><rect x="182" y="293" width="26" height="26" fill="none" stroke="#ffca7a" stroke-width="3" opacity="0.45"/><rect x="213" y="288" width="36" height="36" fill="#2a2a3e" stroke="#444" stroke-width="1"/><rect x="249" y="288" width="36" height="36" fill="#2a2a3e" stroke="#444" stroke-width="1"/><rect x="285" y="288" width="36" height="36" fill="#2a2a3e" stroke="#444" stroke-width="1"/><rect x="321" y="288" width="36" height="36" fill="#2a2a3e" stroke="#444" stroke-width="1"/><rect x="33" y="324" width="36" height="36" fill="#2a2a3e" stroke="#444" stroke-width="1"/><rect x="69" y="324" width="36" height="36" fill="#2a2a3e" stroke="#444" stroke-width="1"/><rect x="105" y="324" width="36" height="36" fill="#2a2a3e" stroke="#444" stroke-width="1"/><rect x="141" y="324" width="36" height="36" fill="#2a2a3e" stroke="#444" stroke-width="1"/><rect x="177" y="324" width="36" height="36" fill="#2a2a3e" stroke="#444" stroke-width="1"/><rect x="213" y="324" width="36" height="36" fill="#2a2a3e" stroke="#444" stroke-width="1"/><rect x="249" y="324" width="36" height="36" fill="#2a2a3e" stroke="#444" stroke-width="1"/><rect x="285" y="324" width="36" height="36" fill="#2a2a3e" stroke="#444" stroke-width="1"/><rect x="321" y="324" width="36" height="36" fill="#2a2a3e" stroke="#444" stroke-width="1"/><rect x="33" y="360" width="36" height="36" fill="#2a2a3e" stroke="#444" stroke-width="1"/><rect x="69" y="360" width="36" height="36" fill="#2a2a3e" stroke="#444" stroke-width="1"/><rect x="105" y="360" width="36" height="36" fill="#2a2a3e" stroke="#444" stroke-width="1"/><rect x="141" y="360" width="36" height="36" fill="#2a2a3e" stroke="#444" stroke-width="1"/><rect x="177" y="360" width="36" height="36" fill="#2a2a3e" stroke="#444" stroke-width="1"/><rect x="213" y="360" width="36" height="36" fill="#2a2a3e" stroke="#444" stroke-width="1"/><rect x="249" y="360" width="36" height="36" fill="#2a2a3e" stroke="#444" stroke-width="1"/><rect x="285" y="360" width="36" height="36" fill="#2a2a3e" stroke="#444" stroke-width="1"/><rect x="321" y="360" width="36" height="36" fill="#2a2a3e" stroke="#444" stroke-width="1"/><rect x="33" y="396" width="36" height="36" fill="#2a2a3e" stroke="#444" stroke-width="1"/><rect x="69" y="396" width="36" height="36" fill="#2a2a3e" stroke="#444" stroke-width="1"/><rect x="105" y="396" width="36" height="36" fill="#2a2a3e" stroke="#444" stroke-width="1"/><rect x="141" y="396" width="36" height="36" fill="#2a2a3e" stroke="#444" stroke-width="1"/><rect x="177" y="396" width="36" height="36" fill="#2a2a3e" stroke="#444" stroke-width="1"/><rect x="213" y="396" width="36" height="36" fill="#2a2a3e" stroke="#444" stroke-width="1"/><rect x="249" y="396" width="36" height="36" fill="#2a2a3e" stroke="#444" stroke-width="1"/><rect x="285" y="396" width="36" height="36" fill="#2a2a3e" stroke="#444" stroke-width="1"/><rect x="321" y="396" width="36" height="36" fill="#2a2a3e" stroke="#444" stroke-width="1"/><text x="195" y="136" text-anchor="middle" font-size="24" font-family="DejaVu Sans">📼</text><text x="195" y="280" text-anchor="middle" font-size="24" font-family="DejaVu Sans">●</text><text x="20" y="462" fill="#aaa" font-size="11" font-family="DejaVu Sans" font-style="italic">“It unfolds a screen of light between the</text><text x="20" y="478" fill="#aaa" font-size="11" font-family="DejaVu Sans" font-style="italic">“trees. And there — impossibly — is home.</text><text x="20" y="494" fill="#aaa" font-size="11" font-family="DejaVu Sans" font-style="italic">“Your street. Your kitchen. Someone you miss,”</text><text x="20" y="524" fill="#666" font-size="10" font-family="DejaVu Sans">5 telegraph cells · 390px mobile</text></svg>