<svg width="390" height="700" xmlns="http://www.w3.org/2000/svg"><defs><pattern id="p8s" patternUnits="userSpaceOnUse" width="12" height="12" patternTransform="rotate(45)"><rect width="12" height="12" fill="#a5f3fc" opacity="0.12"/><rect width="6" height="12" fill="#a5f3fc" opacity="0.42"/></pattern><pattern id="p8k" patternUnits="userSpaceOnUse" width="9" height="9" patternTransform="rotate(115)"><rect width="9" height="9" fill="#1e1b4b" opacity="0.55"/><rect width="4" height="9" fill="#a5f3fc" opacity="0.34"/></pattern></defs><rect width="390" height="640" fill="#1a1a2e"/><text x="195" y="30" text-anchor="middle" fill="#eee" font-size="16" font-family="DejaVu Sans" font-weight="bold">The Static Kite — The Broadcast</text><text x="195" y="52" text-anchor="middle" fill="#8af" font-size="11" font-family="DejaVu Sans">pattern: burst · learned = shown</text><text x="195" y="70" text-anchor="middle" fill="#fd8" font-size="11" font-family="DejaVu Sans">w2bKite — static discharge ↯</text><rect x="33" y="108" width="36" height="36" fill="#2a2a3e" stroke="#444" stroke-width="1"/><rect x="69" y="108" width="36" height="36" fill="#2a2a3e" stroke="#444" stroke-width="1"/><rect x="105" y="108" width="36" height="36" fill="#2a2a3e" stroke="#444" stroke-width="1"/><rect x="141" y="108" width="36" height="36" fill="#2a2a3e" stroke="#444" stroke-width="1"/><rect x="177" y="108" width="36" height="36" fill="#2a2a3e" stroke="#444" stroke-width="1"/><rect x="213" y="108" width="36" height="36" fill="#2a2a3e" stroke="#444" stroke-width="1"/><rect x="249" y="108" width="36" height="36" fill="#2a2a3e" stroke="#444" stroke-width="1"/><rect x="285" y="108" width="36" height="36" fill="#2a2a3e" stroke="#444" stroke-width="1"/><rect x="321" y="108" width="36" height="36" fill="#2a2a3e" stroke="#444" stroke-width="1"/><rect x="33" y="144" width="36" height="36" fill="#2a2a3e" stroke="#444" stroke-width="1"/><rect x="69" y="144" width="36" height="36" fill="#2a2a3e" stroke="#444" stroke-width="1"/><rect x="105" y="144" width="36" height="36" fill="#2a2a3e" stroke="#444" stroke-width="1"/><rect x="141" y="144" width="36" height="36" fill="#2a2a3e" stroke="#444" stroke-width="1"/><rect x="142" y="145" width="34" height="34" fill="url(#p8k)" stroke="#a5f3fc" stroke-width="2"/><rect x="177" y="144" width="36" height="36" fill="#2a2a3e" stroke="#444" stroke-width="1"/><rect x="178" y="145" width="34" height="34" fill="url(#p8k)" stroke="#a5f3fc" stroke-width="2"/><rect x="213" y="144" width="36" height="36" fill="#2a2a3e" stroke="#444" stroke-width="1"/><rect x="214" y="145" width="34" height="34" fill="url(#p8k)" stroke="#a5f3fc" stroke-width="2"/><rect x="249" y="144" width="36" height="36" fill="#2a2a3e" stroke="#444" stroke-width="1"/><rect x="285" y="144" width="36" height="36" fill="#2a2a3e" stroke="#444" stroke-width="1"/><rect x="321" y="144" width="36" height="36" fill="#2a2a3e" stroke="#444" stroke-width="1"/><rect x="33" y="180" width="36" height="36" fill="#2a2a3e" stroke="#444" stroke-width="1"/><rect x="69" y="180" width="36" height="36" fill="#2a2a3e" stroke="#444" stroke-width="1"/><rect x="105" y="180" width="36" height="36" fill="#2a2a3e" stroke="#444" stroke-width="1"/><rect x="141" y="180" width="36" height="36" fill="#2a2a3e" stroke="#444" stroke-width="1"/><rect x="142" y="181" width="34" height="34" fill="url(#p8k)" stroke="#a5f3fc" stroke-width="2"/><rect x="177" y="180" width="36" height="36" fill="#2a2a3e" stroke="#444" stroke-width="1"/><rect x="178" y="181" width="34" height="34" fill="url(#p8k)" stroke="#a5f3fc" stroke-width="2"/><rect x="213" y="180" width="36" height="36" fill="#2a2a3e" stroke="#444" stroke-width="1"/><rect x="214" y="181" width="34" height="34" fill="url(#p8k)" stroke="#a5f3fc" stroke-width="2"/><rect x="249" y="180" width="36" height="36" fill="#2a2a3e" stroke="#444" stroke-width="1"/><rect x="285" y="180" width="36" height="36" fill="#2a2a3e" stroke="#444" stroke-width="1"/><rect x="321" y="180" width="36" height="36" fill="#2a2a3e" stroke="#444" stroke-width="1"/><rect x="33" y="216" width="36" height="36" fill="#2a2a3e" stroke="#444" stroke-width="1"/><rect x="69" y="216" width="36" height="36" fill="#2a2a3e" stroke="#444" stroke-width="1"/><rect x="105" y="216" width="36" height="36" fill="#2a2a3e" stroke="#444" stroke-width="1"/><rect x="141" y="216" width="36" height="36" fill="#2a2a3e" stroke="#444" stroke-width="1"/><rect x="142" y="217" width="34" height="34" fill="url(#p8k)" stroke="#a5f3fc" stroke-width="2"/><rect x="177" y="216" width="36" height="36" fill="#2a2a3e" stroke="#444" stroke-width="1"/><rect x="178" y="217" width="34" height="34" fill="url(#p8k)" stroke="#a5f3fc" stroke-width="2"/><rect x="213" y="216" width="36" height="36" fill="#2a2a3e" stroke="#444" stroke-width="1"/><rect x="214" y="217" width="34" height="34" fill="url(#p8k)" stroke="#a5f3fc" stroke-width="2"/><rect x="249" y="216" width="36" height="36" fill="#2a2a3e" stroke="#444" stroke-width="1"/><rect x="285" y="216" width="36" height="36" fill="#2a2a3e" stroke="#444" stroke-width="1"/><rect x="321" y="216" width="36" height="36" fill="#2a2a3e" stroke="#444" stroke-width="1"/><rect x="33" y="252" width="36" height="36" fill="#2a2a3e" stroke="#444" stroke-width="1"/><rect x="69" y="252" width="36" height="36" fill="#2a2a3e" stroke="#444" stroke-width="1"/><rect x="105" y="252" width="36" height="36" fill="#2a2a3e" stroke="#444" stroke-width="1"/><rect x="141" y="252" width="36" height="36" fill="#2a2a3e" stroke="#444" stroke-width="1"/><rect x="177" y="252" width="36" height="36" fill="#2a2a3e" stroke="#444" stroke-width="1"/><rect x="213" y="252" width="36" height="36" fill="#2a2a3e" stroke="#444" stroke-width="1"/><rect x="249" y="252" width="36" height="36" fill="#2a2a3e" stroke="#444" stroke-width="1"/><rect x="285" y="252" width="36" height="36" fill="#2a2a3e" stroke="#444" stroke-width="1"/><rect x="321" y="252" width="36" height="36" fill="#2a2a3e" stroke="#444" stroke-width="1"/><rect x="33" y="288" width="36" height="36" fill="#2a2a3e" stroke="#444" stroke-width="1"/><rect x="69" y="288" width="36" height="36" fill="#2a2a3e" stroke="#444" stroke-width="1"/><rect x="105" y="288" width="36" height="36" fill="#2a2a3e" stroke="#444" stroke-width="1"/><rect x="141" y="288" width="36" height="36" fill="#2a2a3e" stroke="#444" stroke-width="1"/><rect x="177" y="288" width="36" height="36" fill="#2a2a3e" stroke="#444" stroke-width="1"/><rect x="213" y="288" width="36" height="36" fill="#2a2a3e" stroke="#444" stroke-width="1"/><rect x="249" y="288" width="36" height="36" fill="#2a2a3e" stroke="#444" stroke-width="1"/><rect x="285" y="288" width="36" height="36" fill="#2a2a3e" stroke="#444" stroke-width="1"/><rect x="321" y="288" width="36" height="36" fill="#2a2a3e" stroke="#444" stroke-width="1"/><rect x="33" y="324" width="36" height="36" fill="#2a2a3e" stroke="#444" stroke-width="1"/><rect x="69" y="324" width="36" height="36" fill="#2a2a3e" stroke="#444" stroke-width="1"/><rect x="105" y="324" width="36" height="36" fill="#2a2a3e" stroke="#444" stroke-width="1"/><rect x="141" y="324" width="36" height="36" fill="#2a2a3e" stroke="#444" stroke-width="1"/><rect x="177" y="324" width="36" height="36" fill="#2a2a3e" stroke="#444" stroke-width="1"/><rect x="213" y="324" width="36" height="36" fill="#2a2a3e" stroke="#444" stroke-width="1"/><rect x="249" y="324" width="36" height="36" fill="#2a2a3e" stroke="#444" stroke-width="1"/><rect x="285" y="324" width="36" height="36" fill="#2a2a3e" stroke="#444" stroke-width="1"/><rect x="321" y="324" width="36" height="36" fill="#2a2a3e" stroke="#444" stroke-width="1"/><rect x="33" y="360" width="36" height="36" fill="#2a2a3e" stroke="#444" stroke-width="1"/><rect x="69" y="360" width="36" height="36" fill="#2a2a3e" stroke="#444" stroke-width="1"/><rect x="105" y="360" width="36" height="36" fill="#2a2a3e" stroke="#444" stroke-width="1"/><rect x="141" y="360" width="36" height="36" fill="#2a2a3e" stroke="#444" stroke-width="1"/><rect x="177" y="360" width="36" height="36" fill="#2a2a3e" stroke="#444" stroke-width="1"/><rect x="213" y="360" width="36" height="36" fill="#2a2a3e" stroke="#444" stroke-width="1"/><rect x="249" y="360" width="36" height="36" fill="#2a2a3e" stroke="#444" stroke-width="1"/><rect x="285" y="360" width="36" height="36" fill="#2a2a3e" stroke="#444" stroke-width="1"/><rect x="321" y="360" width="36" height="36" fill="#2a2a3e" stroke="#444" stroke-width="1"/><rect x="33" y="396" width="36" height="36" fill="#2a2a3e" stroke="#444" stroke-width="1"/><rect x="69" y="396" width="36" height="36" fill="#2a2a3e" stroke="#444" stroke-width="1"/><rect x="105" y="396" width="36" height="36" fill="#2a2a3e" stroke="#444" stroke-width="1"/><rect x="141" y="396" width="36" height="36" fill="#2a2a3e" stroke="#444" stroke-width="1"/><rect x="177" y="396" width="36" height="36" fill="#2a2a3e" stroke="#444" stroke-width="1"/><rect x="213" y="396" width="36" height="36" fill="#2a2a3e" stroke="#444" stroke-width="1"/><rect x="249" y="396" width="36" height="36" fill="#2a2a3e" stroke="#444" stroke-width="1"/><rect x="285" y="396" width="36" height="36" fill="#2a2a3e" stroke="#444" stroke-width="1"/><rect x="321" y="396" width="36" height="36" fill="#2a2a3e" stroke="#444" stroke-width="1"/><text x="195" y="208" text-anchor="middle" font-size="24" font-family="DejaVu Sans">🪁</text><text x="195" y="280" text-anchor="middle" font-size="24" font-family="DejaVu Sans">●</text><text x="159" y="168" text-anchor="middle" font-size="16" font-family="DejaVu Sans" fill="#d9fbff">↯</text><text x="195" y="168" text-anchor="middle" font-size="16" font-family="DejaVu Sans" fill="#d9fbff">↯</text><text x="231" y="168" text-anchor="middle" font-size="16" font-family="DejaVu Sans" fill="#d9fbff">↯</text><text x="159" y="204" text-anchor="middle" font-size="16" font-family="DejaVu Sans" fill="#d9fbff">↯</text><text x="195" y="204" text-anchor="middle" font-size="16" font-family="DejaVu Sans" fill="#d9fbff">↯</text><text x="231" y="204" text-anchor="middle" font-size="16" font-family="DejaVu Sans" fill="#d9fbff">↯</text><text x="159" y="240" text-anchor="middle" font-size="16" font-family="DejaVu Sans" fill="#d9fbff">↯</text><text x="195" y="240" text-anchor="middle" font-size="16" font-family="DejaVu Sans" fill="#d9fbff">↯</text><text x="231" y="240" text-anchor="middle" font-size="16" font-family="DejaVu Sans" fill="#d9fbff">↯</text><text x="20" y="462" fill="#aaa" font-size="11" font-family="DejaVu Sans" font-style="italic">“The kite stops dead in the sky. It's framing</text><text x="20" y="478" fill="#aaa" font-size="11" font-family="DejaVu Sans" font-style="italic">“the shot.”</text><text x="20" y="524" fill="#666" font-size="10" font-family="DejaVu Sans">9 telegraph cells · 390px mobile</text></svg>