<svg width="390" height="680" xmlns="http://www.w3.org/2000/svg" font-family="monospace"><rect width="390" height="680" fill="#14141f"/><text x="15" y="38" fill="#eee" font-size="14" font-weight="bold">White-Noise Heron — Spearfish Strike</text><text x="15" y="54" fill="#eee" font-size="14" font-weight="bold">(line)</text><text x="15" y="71" fill="#aaa" font-size="11">attack: Spearfish Strike · pattern: line ·</text><text x="15" y="86" fill="#aaa" font-size="11">turnsLeft: 2 · phase: unfold</text><text x="15" y="101" fill="#aaa" font-size="11">codex: PATTERN LEARNED · declared after 1</text><text x="15" y="116" fill="#aaa" font-size="11">rounds</text><text x="15" y="131" fill="#ffd88a" font-size="11">cue: The heron is gone. No — it's there.</text><text x="15" y="146" fill="#ffd88a" font-size="11">It was always there. You just couldn't see</text><text x="15" y="161" fill="#ffd88a" font-size="11">it until it moved. It is still gathering</text><text x="15" y="176" fill="#ffd88a" font-size="11">itself… You know this one: Spearfish</text><text x="15" y="191" fill="#ffd88a" font-size="11">Strike strikes in a straight line. It</text><text x="15" y="206" fill="#ffd88a" font-size="11">strikes where you were, not where you are.</text><rect x="15" y="218" width="40" height="40" fill="#2a2a3e" stroke="#444" stroke-width="1"/><rect x="55" y="218" width="40" height="40" fill="#2a2a3e" stroke="#444" stroke-width="1"/><rect x="95" y="218" width="40" height="40" fill="#2a2a3e" stroke="#444" stroke-width="1"/><rect x="135" y="218" width="40" height="40" fill="#2a2a3e" stroke="#444" stroke-width="1"/><rect x="175" y="218" width="40" height="40" fill="#2a2a3e" stroke="#444" stroke-width="1"/><rect x="215" y="218" width="40" height="40" fill="#2a2a3e" stroke="#444" stroke-width="1"/><rect x="255" y="218" width="40" height="40" fill="#2a2a3e" stroke="#444" stroke-width="1"/><rect x="295" y="218" width="40" height="40" fill="#2a2a3e" stroke="#444" stroke-width="1"/><rect x="335" y="218" width="40" height="40" fill="#2a2a3e" stroke="#444" stroke-width="1"/><rect x="15" y="258" width="40" height="40" fill="#2a2a3e" stroke="#444" stroke-width="1"/><rect x="55" y="258" width="40" height="40" fill="#2a2a3e" stroke="#444" stroke-width="1"/><rect x="95" y="258" width="40" height="40" fill="#2a2a3e" stroke="#444" stroke-width="1"/><rect x="135" y="258" width="40" height="40" fill="#2a2a3e" stroke="#444" stroke-width="1"/><rect x="175" y="258" width="40" height="40" fill="#2a2a3e" stroke="#444" stroke-width="1"/><rect x="215" y="258" width="40" height="40" fill="#2a2a3e" stroke="#444" stroke-width="1"/><rect x="255" y="258" width="40" height="40" fill="#2a2a3e" stroke="#444" stroke-width="1"/><rect x="295" y="258" width="40" height="40" fill="#2a2a3e" stroke="#444" stroke-width="1"/><rect x="335" y="258" width="40" height="40" fill="#2a2a3e" stroke="#444" stroke-width="1"/><rect x="15" y="298" width="40" height="40" fill="#2a2a3e" stroke="#444" stroke-width="1"/><rect x="55" y="298" width="40" height="40" fill="#2a2a3e" stroke="#444" stroke-width="1"/><rect x="95" y="298" width="40" height="40" fill="#2a2a3e" stroke="#444" stroke-width="1"/><rect x="135" y="298" width="40" height="40" fill="#2a2a3e" stroke="#444" stroke-width="1"/><rect x="175" y="298" width="40" height="40" fill="#2a2a3e" stroke="#444" stroke-width="1"/><rect x="215" y="298" width="40" height="40" fill="#2a2a3e" stroke="#444" stroke-width="1"/><rect x="255" y="298" width="40" height="40" fill="#2a2a3e" stroke="#444" stroke-width="1"/><rect x="295" y="298" width="40" height="40" fill="#2a2a3e" stroke="#444" stroke-width="1"/><rect x="335" y="298" width="40" height="40" fill="#2a2a3e" stroke="#444" stroke-width="1"/><rect x="15" y="338" width="40" height="40" fill="#2a2a3e" stroke="#444" stroke-width="1"/><rect x="55" y="338" width="40" height="40" fill="#2a2a3e" stroke="#444" stroke-width="1"/><rect x="95" y="338" width="40" height="40" fill="#2a2a3e" stroke="#444" stroke-width="1"/><rect x="135" y="338" width="40" height="40" fill="#2a2a3e" stroke="#444" stroke-width="1"/><rect x="175" y="338" width="40" height="40" fill="#2a2a3e" stroke="#444" stroke-width="1"/><rect x="215" y="338" width="40" height="40" fill="#2a2a3e" stroke="#444" stroke-width="1"/><rect x="255" y="338" width="40" height="40" fill="#2a2a3e" stroke="#444" stroke-width="1"/><rect x="295" y="338" width="40" height="40" fill="#2a2a3e" stroke="#444" stroke-width="1"/><rect x="335" y="338" width="40" height="40" fill="#2a2a3e" stroke="#444" stroke-width="1"/><rect x="15" y="378" width="40" height="40" fill="#2a2a3e" stroke="#444" stroke-width="1"/><rect x="55" y="378" width="40" height="40" fill="#2a2a3e" stroke="#444" stroke-width="1"/><rect x="95" y="378" width="40" height="40" fill="rgba(232,244,255,.30)" stroke="#e8f4ff" stroke-width="2" stroke-dasharray="5,3" stroke-linecap="round"/><rect x="135" y="378" width="40" height="40" fill="rgba(232,244,255,.30)" stroke="#e8f4ff" stroke-width="2" stroke-dasharray="5,3" stroke-linecap="round"/><rect x="175" y="378" width="40" height="40" fill="rgba(232,244,255,.30)" stroke="#e8f4ff" stroke-width="2" stroke-dasharray="5,3" stroke-linecap="round"/><circle cx="195" cy="398" r="13" fill="#f5f5f5" stroke="#111" stroke-width="2"/><text x="195" y="403" text-anchor="middle" font-size="13" font-weight="bold" fill="#111">P</text><rect x="215" y="378" width="40" height="40" fill="rgba(232,244,255,.30)" stroke="#e8f4ff" stroke-width="2" stroke-dasharray="5,3" stroke-linecap="round"/><rect x="255" y="378" width="40" height="40" fill="#2a2a3e" stroke="#444" stroke-width="1"/><circle cx="275" cy="398" r="13" fill="#c62828" stroke="#fff" stroke-width="2"/><text x="275" y="403" text-anchor="middle" font-size="13" font-weight="bold" fill="#fff">A</text><rect x="295" y="378" width="40" height="40" fill="#2a2a3e" stroke="#444" stroke-width="1"/><rect x="335" y="378" width="40" height="40" fill="#2a2a3e" stroke="#444" stroke-width="1"/><rect x="15" y="418" width="40" height="40" fill="#2a2a3e" stroke="#444" stroke-width="1"/><rect x="55" y="418" width="40" height="40" fill="#2a2a3e" stroke="#444" stroke-width="1"/><rect x="95" y="418" width="40" height="40" fill="#2a2a3e" stroke="#444" stroke-width="1"/><rect x="135" y="418" width="40" height="40" fill="#2a2a3e" stroke="#444" stroke-width="1"/><rect x="175" y="418" width="40" height="40" fill="#2a2a3e" stroke="#444" stroke-width="1"/><rect x="215" y="418" width="40" height="40" fill="#2a2a3e" stroke="#444" stroke-width="1"/><rect x="255" y="418" width="40" height="40" fill="#2a2a3e" stroke="#444" stroke-width="1"/><rect x="295" y="418" width="40" height="40" fill="#2a2a3e" stroke="#444" stroke-width="1"/><rect x="335" y="418" width="40" height="40" fill="#2a2a3e" stroke="#444" stroke-width="1"/><rect x="15" y="458" width="40" height="40" fill="#2a2a3e" stroke="#444" stroke-width="1"/><rect x="55" y="458" width="40" height="40" fill="#2a2a3e" stroke="#444" stroke-width="1"/><rect x="95" y="458" width="40" height="40" fill="#2a2a3e" stroke="#444" stroke-width="1"/><rect x="135" y="458" width="40" height="40" fill="#2a2a3e" stroke="#444" stroke-width="1"/><rect x="175" y="458" width="40" height="40" fill="#2a2a3e" stroke="#444" stroke-width="1"/><rect x="215" y="458" width="40" height="40" fill="#2a2a3e" stroke="#444" stroke-width="1"/><rect x="255" y="458" width="40" height="40" fill="#2a2a3e" stroke="#444" stroke-width="1"/><rect x="295" y="458" width="40" height="40" fill="#2a2a3e" stroke="#444" stroke-width="1"/><rect x="335" y="458" width="40" height="40" fill="#2a2a3e" stroke="#444" stroke-width="1"/><rect x="15" y="498" width="40" height="40" fill="#2a2a3e" stroke="#444" stroke-width="1"/><rect x="55" y="498" width="40" height="40" fill="#2a2a3e" stroke="#444" stroke-width="1"/><rect x="95" y="498" width="40" height="40" fill="#2a2a3e" stroke="#444" stroke-width="1"/><rect x="135" y="498" width="40" height="40" fill="#2a2a3e" stroke="#444" stroke-width="1"/><rect x="175" y="498" width="40" height="40" fill="#2a2a3e" stroke="#444" stroke-width="1"/><rect x="215" y="498" width="40" height="40" fill="#2a2a3e" stroke="#444" stroke-width="1"/><rect x="255" y="498" width="40" height="40" fill="#2a2a3e" stroke="#444" stroke-width="1"/><rect x="295" y="498" width="40" height="40" fill="#2a2a3e" stroke="#444" stroke-width="1"/><rect x="335" y="498" width="40" height="40" fill="#2a2a3e" stroke="#444" stroke-width="1"/><rect x="15" y="538" width="40" height="40" fill="#2a2a3e" stroke="#444" stroke-width="1"/><rect x="55" y="538" width="40" height="40" fill="#2a2a3e" stroke="#444" stroke-width="1"/><rect x="95" y="538" width="40" height="40" fill="#2a2a3e" stroke="#444" stroke-width="1"/><rect x="135" y="538" width="40" height="40" fill="#2a2a3e" stroke="#444" stroke-width="1"/><rect x="175" y="538" width="40" height="40" fill="#2a2a3e" stroke="#444" stroke-width="1"/><rect x="215" y="538" width="40" height="40" fill="#2a2a3e" stroke="#444" stroke-width="1"/><rect x="255" y="538" width="40" height="40" fill="#2a2a3e" stroke="#444" stroke-width="1"/><rect x="295" y="538" width="40" height="40" fill="#2a2a3e" stroke="#444" stroke-width="1"/><rect x="335" y="538" width="40" height="40" fill="#2a2a3e" stroke="#444" stroke-width="1"/><text x="15" y="600" fill="#888" font-size="10">legend:</text><rect x="70" y="590" width="10" height="10" fill="#ff6b35" stroke="#555" stroke-width="1"/><text x="83" y="600" fill="#aaa" font-size="10">burst</text><rect x="132" y="590" width="10" height="10" fill="#39d353" stroke="#555" stroke-width="1"/><text x="145" y="600" fill="#aaa" font-size="10">resonant</text><rect x="212.6" y="590" width="10" height="10" fill="#ff7b54" stroke="#555" stroke-width="1"/><text x="225.6" y="600" fill="#aaa" font-size="10">swarmHum</text><rect x="70" y="606" width="10" height="10" fill="#f8f9fa" stroke="#555" stroke-width="1"/><text x="83" y="616" fill="#aaa" font-size="10">flashBurst</text><rect x="163" y="606" width="10" height="10" fill="#ff2fb3" stroke="#555" stroke-width="1"/><text x="176" y="616" fill="#aaa" font-size="10">pepBurst</text><rect x="243.6" y="606" width="10" height="10" fill="#ff2d00" stroke="#555" stroke-width="1"/><text x="256.6" y="616" fill="#aaa" font-size="10">beam</text><rect x="70" y="622" width="10" height="10" fill="#e8f4ff" stroke="#555" stroke-width="1"/><text x="83" y="632" fill="#aaa" font-size="10">heronStrike</text><rect x="169.2" y="622" width="10" height="10" fill="#ffd23f" stroke="#555" stroke-width="1"/><text x="182.2" y="632" fill="#aaa" font-size="10">chargeLane</text><rect x="262.2" y="622" width="10" height="10" fill="#9d4edd" stroke="#555" stroke-width="1"/><text x="275.2" y="632" fill="#aaa" font-size="10">lockOn(direct)</text><rect x="70" y="638" width="10" height="10" fill="#ff3b30" stroke="#555" stroke-width="1"/><text x="83" y="648" fill="#aaa" font-size="10">targetTile</text><rect x="163" y="638" width="10" height="10" fill="#39d353" stroke="#555" stroke-width="1"/><text x="176" y="648" fill="#aaa" font-size="10">tellCell</text><rect x="243.6" y="638" width="10" height="10" fill="#f5e9a8" stroke="#555" stroke-width="1"/><text x="256.6" y="648" fill="#aaa" font-size="10">duckLane</text><text x="15" y="668" fill="#666" font-size="10">visual proof 2026-10-07 — real combat, app.js bucket routing</text></svg>