<svg width="390" height="650" xmlns="http://www.w3.org/2000/svg" font-family="monospace"><rect width="390" height="650" fill="#14141f"/><text x="15" y="38" fill="#eee" font-size="14" font-weight="bold">White-Noise Heron — Spearfish Strike</text><text x="15" y="54" fill="#eee" font-size="14" font-weight="bold">(line)</text><text x="15" y="71" fill="#aaa" font-size="11">attack: Spearfish Strike · pattern: line ·</text><text x="15" y="86" fill="#aaa" font-size="11">turnsLeft: 2 · phase: unfold</text><text x="15" y="101" fill="#aaa" font-size="11">codex: unknown (first contact) · declared</text><text x="15" y="116" fill="#aaa" font-size="11">after 1 rounds</text><text x="15" y="131" fill="#ffd88a" font-size="11">cue: The heron is gone. No — it's there.</text><text x="15" y="146" fill="#ffd88a" font-size="11">It was always there. You just couldn't see</text><text x="15" y="161" fill="#ffd88a" font-size="11">it until it moved. It is still gathering</text><text x="15" y="176" fill="#ffd88a" font-size="11">itself…</text><rect x="15" y="188" width="40" height="40" fill="#2a2a3e" stroke="#444" stroke-width="1"/><rect x="55" y="188" width="40" height="40" fill="#2a2a3e" stroke="#444" stroke-width="1"/><rect x="95" y="188" width="40" height="40" fill="#2a2a3e" stroke="#444" stroke-width="1"/><rect x="135" y="188" width="40" height="40" fill="#2a2a3e" stroke="#444" stroke-width="1"/><rect x="175" y="188" width="40" height="40" fill="#2a2a3e" stroke="#444" stroke-width="1"/><rect x="215" y="188" width="40" height="40" fill="#2a2a3e" stroke="#444" stroke-width="1"/><rect x="255" y="188" width="40" height="40" fill="#2a2a3e" stroke="#444" stroke-width="1"/><rect x="295" y="188" width="40" height="40" fill="#2a2a3e" stroke="#444" stroke-width="1"/><rect x="335" y="188" width="40" height="40" fill="#2a2a3e" stroke="#444" stroke-width="1"/><rect x="15" y="228" width="40" height="40" fill="#2a2a3e" stroke="#444" stroke-width="1"/><rect x="55" y="228" width="40" height="40" fill="#2a2a3e" stroke="#444" stroke-width="1"/><rect x="95" y="228" width="40" height="40" fill="#2a2a3e" stroke="#444" stroke-width="1"/><rect x="135" y="228" width="40" height="40" fill="#2a2a3e" stroke="#444" stroke-width="1"/><rect x="175" y="228" width="40" height="40" fill="#2a2a3e" stroke="#444" stroke-width="1"/><rect x="215" y="228" width="40" height="40" fill="#2a2a3e" stroke="#444" stroke-width="1"/><rect x="255" y="228" width="40" height="40" fill="#2a2a3e" stroke="#444" stroke-width="1"/><rect x="295" y="228" width="40" height="40" fill="#2a2a3e" stroke="#444" stroke-width="1"/><rect x="335" y="228" width="40" height="40" fill="#2a2a3e" stroke="#444" stroke-width="1"/><rect x="15" y="268" width="40" height="40" fill="#2a2a3e" stroke="#444" stroke-width="1"/><rect x="55" y="268" width="40" height="40" fill="#2a2a3e" stroke="#444" stroke-width="1"/><rect x="95" y="268" width="40" height="40" fill="#2a2a3e" stroke="#444" stroke-width="1"/><rect x="135" y="268" width="40" height="40" fill="#2a2a3e" stroke="#444" stroke-width="1"/><rect x="175" y="268" width="40" height="40" fill="#2a2a3e" stroke="#444" stroke-width="1"/><rect x="215" y="268" width="40" height="40" fill="#2a2a3e" stroke="#444" stroke-width="1"/><rect x="255" y="268" width="40" height="40" fill="#2a2a3e" stroke="#444" stroke-width="1"/><rect x="295" y="268" width="40" height="40" fill="#2a2a3e" stroke="#444" stroke-width="1"/><rect x="335" y="268" width="40" height="40" fill="#2a2a3e" stroke="#444" stroke-width="1"/><rect x="15" y="308" width="40" height="40" fill="#2a2a3e" stroke="#444" stroke-width="1"/><rect x="55" y="308" width="40" height="40" fill="#2a2a3e" stroke="#444" stroke-width="1"/><rect x="95" y="308" width="40" height="40" fill="#2a2a3e" stroke="#444" stroke-width="1"/><rect x="135" y="308" width="40" height="40" fill="#2a2a3e" stroke="#444" stroke-width="1"/><rect x="175" y="308" width="40" height="40" fill="#2a2a3e" stroke="#444" stroke-width="1"/><rect x="215" y="308" width="40" height="40" fill="#2a2a3e" stroke="#444" stroke-width="1"/><rect x="255" y="308" width="40" height="40" fill="#2a2a3e" stroke="#444" stroke-width="1"/><rect x="295" y="308" width="40" height="40" fill="#2a2a3e" stroke="#444" stroke-width="1"/><rect x="335" y="308" width="40" height="40" fill="#2a2a3e" stroke="#444" stroke-width="1"/><rect x="15" y="348" width="40" height="40" fill="#2a2a3e" stroke="#444" stroke-width="1"/><rect x="55" y="348" width="40" height="40" fill="#2a2a3e" stroke="#444" stroke-width="1"/><rect x="95" y="348" width="40" height="40" fill="#2a2a3e" stroke="#444" stroke-width="1"/><rect x="135" y="348" width="40" height="40" fill="#2a2a3e" stroke="#444" stroke-width="1"/><rect x="175" y="348" width="40" height="40" fill="#2a2a3e" stroke="#444" stroke-width="1"/><circle cx="195" cy="368" r="13" fill="#f5f5f5" stroke="#111" stroke-width="2"/><text x="195" y="373" text-anchor="middle" font-size="13" font-weight="bold" fill="#111">P</text><rect x="215" y="348" width="40" height="40" fill="#2a2a3e" stroke="#444" stroke-width="1"/><rect x="255" y="348" width="40" height="40" fill="#2a2a3e" stroke="#444" stroke-width="1"/><circle cx="275" cy="368" r="13" fill="#c62828" stroke="#fff" stroke-width="2"/><text x="275" y="373" text-anchor="middle" font-size="13" font-weight="bold" fill="#fff">A</text><rect x="295" y="348" width="40" height="40" fill="#2a2a3e" stroke="#444" stroke-width="1"/><rect x="335" y="348" width="40" height="40" fill="#2a2a3e" stroke="#444" stroke-width="1"/><rect x="15" y="388" width="40" height="40" fill="#2a2a3e" stroke="#444" stroke-width="1"/><rect x="55" y="388" width="40" height="40" fill="#2a2a3e" stroke="#444" stroke-width="1"/><rect x="95" y="388" width="40" height="40" fill="#2a2a3e" stroke="#444" stroke-width="1"/><rect x="135" y="388" width="40" height="40" fill="#2a2a3e" stroke="#444" stroke-width="1"/><rect x="175" y="388" width="40" height="40" fill="#2a2a3e" stroke="#444" stroke-width="1"/><rect x="215" y="388" width="40" height="40" fill="#2a2a3e" stroke="#444" stroke-width="1"/><rect x="255" y="388" width="40" height="40" fill="#2a2a3e" stroke="#444" stroke-width="1"/><rect x="295" y="388" width="40" height="40" fill="#2a2a3e" stroke="#444" stroke-width="1"/><rect x="335" y="388" width="40" height="40" fill="#2a2a3e" stroke="#444" stroke-width="1"/><rect x="15" y="428" width="40" height="40" fill="#2a2a3e" stroke="#444" stroke-width="1"/><rect x="55" y="428" width="40" height="40" fill="#2a2a3e" stroke="#444" stroke-width="1"/><rect x="95" y="428" width="40" height="40" fill="#2a2a3e" stroke="#444" stroke-width="1"/><rect x="135" y="428" width="40" height="40" fill="#2a2a3e" stroke="#444" stroke-width="1"/><rect x="175" y="428" width="40" height="40" fill="#2a2a3e" stroke="#444" stroke-width="1"/><rect x="215" y="428" width="40" height="40" fill="#2a2a3e" stroke="#444" stroke-width="1"/><rect x="255" y="428" width="40" height="40" fill="#2a2a3e" stroke="#444" stroke-width="1"/><rect x="295" y="428" width="40" height="40" fill="#2a2a3e" stroke="#444" stroke-width="1"/><rect x="335" y="428" width="40" height="40" fill="#2a2a3e" stroke="#444" stroke-width="1"/><rect x="15" y="468" width="40" height="40" fill="#2a2a3e" stroke="#444" stroke-width="1"/><rect x="55" y="468" width="40" height="40" fill="#2a2a3e" stroke="#444" stroke-width="1"/><rect x="95" y="468" width="40" height="40" fill="#2a2a3e" stroke="#444" stroke-width="1"/><rect x="135" y="468" width="40" height="40" fill="#2a2a3e" stroke="#444" stroke-width="1"/><rect x="175" y="468" width="40" height="40" fill="#2a2a3e" stroke="#444" stroke-width="1"/><rect x="215" y="468" width="40" height="40" fill="#2a2a3e" stroke="#444" stroke-width="1"/><rect x="255" y="468" width="40" height="40" fill="#2a2a3e" stroke="#444" stroke-width="1"/><rect x="295" y="468" width="40" height="40" fill="#2a2a3e" stroke="#444" stroke-width="1"/><rect x="335" y="468" width="40" height="40" fill="#2a2a3e" stroke="#444" stroke-width="1"/><rect x="15" y="508" width="40" height="40" fill="#2a2a3e" stroke="#444" stroke-width="1"/><rect x="55" y="508" width="40" height="40" fill="#2a2a3e" stroke="#444" stroke-width="1"/><rect x="95" y="508" width="40" height="40" fill="#2a2a3e" stroke="#444" stroke-width="1"/><rect x="135" y="508" width="40" height="40" fill="#2a2a3e" stroke="#444" stroke-width="1"/><rect x="175" y="508" width="40" height="40" fill="#2a2a3e" stroke="#444" stroke-width="1"/><rect x="215" y="508" width="40" height="40" fill="#2a2a3e" stroke="#444" stroke-width="1"/><rect x="255" y="508" width="40" height="40" fill="#2a2a3e" stroke="#444" stroke-width="1"/><rect x="295" y="508" width="40" height="40" fill="#2a2a3e" stroke="#444" stroke-width="1"/><rect x="335" y="508" width="40" height="40" fill="#2a2a3e" stroke="#444" stroke-width="1"/><text x="15" y="570" fill="#888" font-size="10">legend:</text><rect x="70" y="560" width="10" height="10" fill="#ff6b35" stroke="#555" stroke-width="1"/><text x="83" y="570" fill="#aaa" font-size="10">burst</text><rect x="132" y="560" width="10" height="10" fill="#39d353" stroke="#555" stroke-width="1"/><text x="145" y="570" fill="#aaa" font-size="10">resonant</text><rect x="212.6" y="560" width="10" height="10" fill="#ff7b54" stroke="#555" stroke-width="1"/><text x="225.6" y="570" fill="#aaa" font-size="10">swarmHum</text><rect x="70" y="576" width="10" height="10" fill="#f8f9fa" stroke="#555" stroke-width="1"/><text x="83" y="586" fill="#aaa" font-size="10">flashBurst</text><rect x="163" y="576" width="10" height="10" fill="#ff2fb3" stroke="#555" stroke-width="1"/><text x="176" y="586" fill="#aaa" font-size="10">pepBurst</text><rect x="243.6" y="576" width="10" height="10" fill="#ff2d00" stroke="#555" stroke-width="1"/><text x="256.6" y="586" fill="#aaa" font-size="10">beam</text><rect x="70" y="592" width="10" height="10" fill="#e8f4ff" stroke="#555" stroke-width="1"/><text x="83" y="602" fill="#aaa" font-size="10">heronStrike</text><rect x="169.2" y="592" width="10" height="10" fill="#ffd23f" stroke="#555" stroke-width="1"/><text x="182.2" y="602" fill="#aaa" font-size="10">chargeLane</text><rect x="262.2" y="592" width="10" height="10" fill="#9d4edd" stroke="#555" stroke-width="1"/><text x="275.2" y="602" fill="#aaa" font-size="10">lockOn(direct)</text><rect x="70" y="608" width="10" height="10" fill="#ff3b30" stroke="#555" stroke-width="1"/><text x="83" y="618" fill="#aaa" font-size="10">targetTile</text><rect x="163" y="608" width="10" height="10" fill="#39d353" stroke="#555" stroke-width="1"/><text x="176" y="618" fill="#aaa" font-size="10">tellCell</text><rect x="243.6" y="608" width="10" height="10" fill="#f5e9a8" stroke="#555" stroke-width="1"/><text x="256.6" y="618" fill="#aaa" font-size="10">duckLane</text><text x="15" y="638" fill="#666" font-size="10">visual proof 2026-10-07 — real combat, app.js bucket routing</text></svg>