<svg width="390" height="677" xmlns="http://www.w3.org/2000/svg" font-family="monospace"><rect width="390" height="677" fill="#14141f"/><text x="15" y="38" fill="#eee" font-size="14" font-weight="bold">Hushwolf — Silent Rush (rush)</text><text x="15" y="40" fill="#ff9d4e" font-size="11">NO GRID TELEGRAPH — BY DESIGN (pattern never declares)</text><text x="15" y="56" fill="#aaa" font-size="11">driven 59 rounds, declared: never</text><text x="15" y="79" fill="#ffd88a" font-size="11">design: rush never declares; the telegraph</text><text x="15" y="94" fill="#ffd88a" font-size="11">is the silence (&quot;The woods go silent — not</text><text x="15" y="109" fill="#ffd88a" font-size="11">quiet. Silent.&quot;)</text><text x="15" y="128" fill="#9fd8ff" font-size="11">combat cues: The woods go silent — not</text><text x="15" y="143" fill="#9fd8ff" font-size="11">quiet. Silent. Like the world holding its</text><text x="15" y="158" fill="#9fd8ff" font-size="11">breath. The pack is already moving. | The</text><text x="15" y="173" fill="#9fd8ff" font-size="11">dog-shaped silence at the treeline 3 is on</text><text x="15" y="188" fill="#9fd8ff" font-size="11">you — no warning, just teeth. | 📖 Codex:</text><text x="15" y="203" fill="#9fd8ff" font-size="11">Silent Rush — gives no warning — it just</text><rect x="15" y="215" width="40" height="40" fill="#2a2a3e" stroke="#444" stroke-width="1"/><rect x="55" y="215" width="40" height="40" fill="#2a2a3e" stroke="#444" stroke-width="1"/><rect x="95" y="215" width="40" height="40" fill="#2a2a3e" stroke="#444" stroke-width="1"/><rect x="135" y="215" width="40" height="40" fill="#2a2a3e" stroke="#444" stroke-width="1"/><rect x="175" y="215" width="40" height="40" fill="#2a2a3e" stroke="#444" stroke-width="1"/><rect x="215" y="215" width="40" height="40" fill="#2a2a3e" stroke="#444" stroke-width="1"/><rect x="255" y="215" width="40" height="40" fill="#2a2a3e" stroke="#444" stroke-width="1"/><rect x="295" y="215" width="40" height="40" fill="#2a2a3e" stroke="#444" stroke-width="1"/><rect x="335" y="215" width="40" height="40" fill="#2a2a3e" stroke="#444" stroke-width="1"/><rect x="15" y="255" width="40" height="40" fill="#2a2a3e" stroke="#444" stroke-width="1"/><rect x="55" y="255" width="40" height="40" fill="#2a2a3e" stroke="#444" stroke-width="1"/><rect x="95" y="255" width="40" height="40" fill="#2a2a3e" stroke="#444" stroke-width="1"/><rect x="135" y="255" width="40" height="40" fill="#2a2a3e" stroke="#444" stroke-width="1"/><rect x="175" y="255" width="40" height="40" fill="#2a2a3e" stroke="#444" stroke-width="1"/><rect x="215" y="255" width="40" height="40" fill="#2a2a3e" stroke="#444" stroke-width="1"/><rect x="255" y="255" width="40" height="40" fill="#2a2a3e" stroke="#444" stroke-width="1"/><rect x="295" y="255" width="40" height="40" fill="#2a2a3e" stroke="#444" stroke-width="1"/><rect x="335" y="255" width="40" height="40" fill="#2a2a3e" stroke="#444" stroke-width="1"/><rect x="15" y="295" width="40" height="40" fill="#2a2a3e" stroke="#444" stroke-width="1"/><rect x="55" y="295" width="40" height="40" fill="#2a2a3e" stroke="#444" stroke-width="1"/><rect x="95" y="295" width="40" height="40" fill="#2a2a3e" stroke="#444" stroke-width="1"/><rect x="135" y="295" width="40" height="40" fill="#2a2a3e" stroke="#444" stroke-width="1"/><rect x="175" y="295" width="40" height="40" fill="#2a2a3e" stroke="#444" stroke-width="1"/><rect x="215" y="295" width="40" height="40" fill="#2a2a3e" stroke="#444" stroke-width="1"/><rect x="255" y="295" width="40" height="40" fill="#2a2a3e" stroke="#444" stroke-width="1"/><rect x="295" y="295" width="40" height="40" fill="#2a2a3e" stroke="#444" stroke-width="1"/><rect x="335" y="295" width="40" height="40" fill="#2a2a3e" stroke="#444" stroke-width="1"/><rect x="15" y="335" width="40" height="40" fill="#2a2a3e" stroke="#444" stroke-width="1"/><rect x="55" y="335" width="40" height="40" fill="#2a2a3e" stroke="#444" stroke-width="1"/><rect x="95" y="335" width="40" height="40" fill="#2a2a3e" stroke="#444" stroke-width="1"/><rect x="135" y="335" width="40" height="40" fill="#2a2a3e" stroke="#444" stroke-width="1"/><rect x="175" y="335" width="40" height="40" fill="#2a2a3e" stroke="#444" stroke-width="1"/><circle cx="195" cy="355" r="13" fill="#c62828" stroke="#fff" stroke-width="2"/><text x="195" y="360" text-anchor="middle" font-size="13" font-weight="bold" fill="#fff">A</text><rect x="215" y="335" width="40" height="40" fill="#2a2a3e" stroke="#444" stroke-width="1"/><circle cx="235" cy="355" r="13" fill="#c62828" stroke="#fff" stroke-width="2"/><text x="235" y="360" text-anchor="middle" font-size="13" font-weight="bold" fill="#fff">A</text><rect x="255" y="335" width="40" height="40" fill="#2a2a3e" stroke="#444" stroke-width="1"/><rect x="295" y="335" width="40" height="40" fill="#2a2a3e" stroke="#444" stroke-width="1"/><rect x="335" y="335" width="40" height="40" fill="#2a2a3e" stroke="#444" stroke-width="1"/><rect x="15" y="375" width="40" height="40" fill="#2a2a3e" stroke="#444" stroke-width="1"/><rect x="55" y="375" width="40" height="40" fill="#2a2a3e" stroke="#444" stroke-width="1"/><rect x="95" y="375" width="40" height="40" fill="#2a2a3e" stroke="#444" stroke-width="1"/><rect x="135" y="375" width="40" height="40" fill="#2a2a3e" stroke="#444" stroke-width="1"/><rect x="175" y="375" width="40" height="40" fill="#2a2a3e" stroke="#444" stroke-width="1"/><circle cx="195" cy="395" r="13" fill="#f5f5f5" stroke="#111" stroke-width="2"/><text x="195" y="400" text-anchor="middle" font-size="13" font-weight="bold" fill="#111">P</text><rect x="215" y="375" width="40" height="40" fill="#2a2a3e" stroke="#444" stroke-width="1"/><circle cx="235" cy="395" r="13" fill="#c62828" stroke="#fff" stroke-width="2"/><text x="235" y="400" text-anchor="middle" font-size="13" font-weight="bold" fill="#fff">A</text><rect x="255" y="375" width="40" height="40" fill="#2a2a3e" stroke="#444" stroke-width="1"/><rect x="295" y="375" width="40" height="40" fill="#2a2a3e" stroke="#444" stroke-width="1"/><rect x="335" y="375" width="40" height="40" fill="#2a2a3e" stroke="#444" stroke-width="1"/><rect x="15" y="415" width="40" height="40" fill="#2a2a3e" stroke="#444" stroke-width="1"/><rect x="55" y="415" width="40" height="40" fill="#2a2a3e" stroke="#444" stroke-width="1"/><rect x="95" y="415" width="40" height="40" fill="#2a2a3e" stroke="#444" stroke-width="1"/><rect x="135" y="415" width="40" height="40" fill="#2a2a3e" stroke="#444" stroke-width="1"/><rect x="175" y="415" width="40" height="40" fill="#2a2a3e" stroke="#444" stroke-width="1"/><rect x="215" y="415" width="40" height="40" fill="#2a2a3e" stroke="#444" stroke-width="1"/><rect x="255" y="415" width="40" height="40" fill="#2a2a3e" stroke="#444" stroke-width="1"/><rect x="295" y="415" width="40" height="40" fill="#2a2a3e" stroke="#444" stroke-width="1"/><rect x="335" y="415" width="40" height="40" fill="#2a2a3e" stroke="#444" stroke-width="1"/><rect x="15" y="455" width="40" height="40" fill="#2a2a3e" stroke="#444" stroke-width="1"/><rect x="55" y="455" width="40" height="40" fill="#2a2a3e" stroke="#444" stroke-width="1"/><rect x="95" y="455" width="40" height="40" fill="#2a2a3e" stroke="#444" stroke-width="1"/><rect x="135" y="455" width="40" height="40" fill="#2a2a3e" stroke="#444" stroke-width="1"/><rect x="175" y="455" width="40" height="40" fill="#2a2a3e" stroke="#444" stroke-width="1"/><rect x="215" y="455" width="40" height="40" fill="#2a2a3e" stroke="#444" stroke-width="1"/><rect x="255" y="455" width="40" height="40" fill="#2a2a3e" stroke="#444" stroke-width="1"/><rect x="295" y="455" width="40" height="40" fill="#2a2a3e" stroke="#444" stroke-width="1"/><rect x="335" y="455" width="40" height="40" fill="#2a2a3e" stroke="#444" stroke-width="1"/><rect x="15" y="495" width="40" height="40" fill="#2a2a3e" stroke="#444" stroke-width="1"/><rect x="55" y="495" width="40" height="40" fill="#2a2a3e" stroke="#444" stroke-width="1"/><rect x="95" y="495" width="40" height="40" fill="#2a2a3e" stroke="#444" stroke-width="1"/><rect x="135" y="495" width="40" height="40" fill="#2a2a3e" stroke="#444" stroke-width="1"/><rect x="175" y="495" width="40" height="40" fill="#2a2a3e" stroke="#444" stroke-width="1"/><rect x="215" y="495" width="40" height="40" fill="#2a2a3e" stroke="#444" stroke-width="1"/><rect x="255" y="495" width="40" height="40" fill="#2a2a3e" stroke="#444" stroke-width="1"/><rect x="295" y="495" width="40" height="40" fill="#2a2a3e" stroke="#444" stroke-width="1"/><rect x="335" y="495" width="40" height="40" fill="#2a2a3e" stroke="#444" stroke-width="1"/><rect x="15" y="535" width="40" height="40" fill="#2a2a3e" stroke="#444" stroke-width="1"/><rect x="55" y="535" width="40" height="40" fill="#2a2a3e" stroke="#444" stroke-width="1"/><rect x="95" y="535" width="40" height="40" fill="#2a2a3e" stroke="#444" stroke-width="1"/><rect x="135" y="535" width="40" height="40" fill="#2a2a3e" stroke="#444" stroke-width="1"/><rect x="175" y="535" width="40" height="40" fill="#2a2a3e" stroke="#444" stroke-width="1"/><rect x="215" y="535" width="40" height="40" fill="#2a2a3e" stroke="#444" stroke-width="1"/><rect x="255" y="535" width="40" height="40" fill="#2a2a3e" stroke="#444" stroke-width="1"/><rect x="295" y="535" width="40" height="40" fill="#2a2a3e" stroke="#444" stroke-width="1"/><rect x="335" y="535" width="40" height="40" fill="#2a2a3e" stroke="#444" stroke-width="1"/><text x="15" y="597" fill="#888" font-size="10">legend:</text><rect x="70" y="587" width="10" height="10" fill="#ff6b35" stroke="#555" stroke-width="1"/><text x="83" y="597" fill="#aaa" font-size="10">burst</text><rect x="132" y="587" width="10" height="10" fill="#39d353" stroke="#555" stroke-width="1"/><text x="145" y="597" fill="#aaa" font-size="10">resonant</text><rect x="212.6" y="587" width="10" height="10" fill="#ff7b54" stroke="#555" stroke-width="1"/><text x="225.6" y="597" fill="#aaa" font-size="10">swarmHum</text><rect x="70" y="603" width="10" height="10" fill="#f8f9fa" stroke="#555" stroke-width="1"/><text x="83" y="613" fill="#aaa" font-size="10">flashBurst</text><rect x="163" y="603" width="10" height="10" fill="#ff2fb3" stroke="#555" stroke-width="1"/><text x="176" y="613" fill="#aaa" font-size="10">pepBurst</text><rect x="243.6" y="603" width="10" height="10" fill="#ff2d00" stroke="#555" stroke-width="1"/><text x="256.6" y="613" fill="#aaa" font-size="10">beam</text><rect x="70" y="619" width="10" height="10" fill="#e8f4ff" stroke="#555" stroke-width="1"/><text x="83" y="629" fill="#aaa" font-size="10">heronStrike</text><rect x="169.2" y="619" width="10" height="10" fill="#ffd23f" stroke="#555" stroke-width="1"/><text x="182.2" y="629" fill="#aaa" font-size="10">chargeLane</text><rect x="262.2" y="619" width="10" height="10" fill="#9d4edd" stroke="#555" stroke-width="1"/><text x="275.2" y="629" fill="#aaa" font-size="10">lockOn(direct)</text><rect x="70" y="635" width="10" height="10" fill="#ff3b30" stroke="#555" stroke-width="1"/><text x="83" y="645" fill="#aaa" font-size="10">targetTile</text><rect x="163" y="635" width="10" height="10" fill="#39d353" stroke="#555" stroke-width="1"/><text x="176" y="645" fill="#aaa" font-size="10">tellCell</text><rect x="243.6" y="635" width="10" height="10" fill="#f5e9a8" stroke="#555" stroke-width="1"/><text x="256.6" y="645" fill="#aaa" font-size="10">duckLane</text><text x="15" y="665" fill="#666" font-size="10">visual proof 2026-10-07 — real combat, app.js bucket routing</text></svg>