<svg width="390" height="619" xmlns="http://www.w3.org/2000/svg" font-family="monospace"><rect width="390" height="619" fill="#14141f"/><text x="15" y="38" fill="#eee" font-size="14" font-weight="bold">Mirror Stag — Confrontation (charge)</text><text x="15" y="55" fill="#aaa" font-size="11">attack: the attack · pattern: charge ·</text><text x="15" y="70" fill="#aaa" font-size="11">turnsLeft: 2 · phase: confront</text><text x="15" y="85" fill="#aaa" font-size="11">codex: unknown (first contact) · declared</text><text x="15" y="100" fill="#aaa" font-size="11">after 1 rounds</text><text x="15" y="115" fill="#ffd88a" font-size="11">cue: It lowers its head. The mirror</text><text x="15" y="130" fill="#ffd88a" font-size="11">catches the light — blinding. Something</text><text x="15" y="145" fill="#ffd88a" font-size="11">terrible is coming.</text><rect x="15" y="157" width="40" height="40" fill="#2a2a3e" stroke="#444" stroke-width="1"/><rect x="55" y="157" width="40" height="40" fill="#2a2a3e" stroke="#444" stroke-width="1"/><rect x="95" y="157" width="40" height="40" fill="#2a2a3e" stroke="#444" stroke-width="1"/><rect x="135" y="157" width="40" height="40" fill="#2a2a3e" stroke="#444" stroke-width="1"/><rect x="175" y="157" width="40" height="40" fill="#2a2a3e" stroke="#444" stroke-width="1"/><rect x="215" y="157" width="40" height="40" fill="#2a2a3e" stroke="#444" stroke-width="1"/><rect x="255" y="157" width="40" height="40" fill="#2a2a3e" stroke="#444" stroke-width="1"/><rect x="295" y="157" width="40" height="40" fill="#2a2a3e" stroke="#444" stroke-width="1"/><rect x="335" y="157" width="40" height="40" fill="#2a2a3e" stroke="#444" stroke-width="1"/><rect x="15" y="197" width="40" height="40" fill="#2a2a3e" stroke="#444" stroke-width="1"/><rect x="55" y="197" width="40" height="40" fill="#2a2a3e" stroke="#444" stroke-width="1"/><rect x="95" y="197" width="40" height="40" fill="#2a2a3e" stroke="#444" stroke-width="1"/><rect x="135" y="197" width="40" height="40" fill="#2a2a3e" stroke="#444" stroke-width="1"/><rect x="175" y="197" width="40" height="40" fill="#2a2a3e" stroke="#444" stroke-width="1"/><rect x="215" y="197" width="40" height="40" fill="#2a2a3e" stroke="#444" stroke-width="1"/><rect x="255" y="197" width="40" height="40" fill="#2a2a3e" stroke="#444" stroke-width="1"/><rect x="295" y="197" width="40" height="40" fill="#2a2a3e" stroke="#444" stroke-width="1"/><rect x="335" y="197" width="40" height="40" fill="#2a2a3e" stroke="#444" stroke-width="1"/><rect x="15" y="237" width="40" height="40" fill="#2a2a3e" stroke="#444" stroke-width="1"/><rect x="55" y="237" width="40" height="40" fill="#2a2a3e" stroke="#444" stroke-width="1"/><rect x="95" y="237" width="40" height="40" fill="#2a2a3e" stroke="#444" stroke-width="1"/><rect x="135" y="237" width="40" height="40" fill="#2a2a3e" stroke="#444" stroke-width="1"/><rect x="175" y="237" width="40" height="40" fill="#2a2a3e" stroke="#444" stroke-width="1"/><rect x="215" y="237" width="40" height="40" fill="#2a2a3e" stroke="#444" stroke-width="1"/><rect x="255" y="237" width="40" height="40" fill="#2a2a3e" stroke="#444" stroke-width="1"/><rect x="295" y="237" width="40" height="40" fill="#2a2a3e" stroke="#444" stroke-width="1"/><rect x="335" y="237" width="40" height="40" fill="#2a2a3e" stroke="#444" stroke-width="1"/><rect x="15" y="277" width="40" height="40" fill="#2a2a3e" stroke="#444" stroke-width="1"/><rect x="55" y="277" width="40" height="40" fill="#2a2a3e" stroke="#444" stroke-width="1"/><rect x="95" y="277" width="40" height="40" fill="#2a2a3e" stroke="#444" stroke-width="1"/><rect x="135" y="277" width="40" height="40" fill="#2a2a3e" stroke="#444" stroke-width="1"/><rect x="175" y="277" width="40" height="40" fill="#2a2a3e" stroke="#444" stroke-width="1"/><rect x="215" y="277" width="40" height="40" fill="#2a2a3e" stroke="#444" stroke-width="1"/><circle cx="235" cy="297" r="13" fill="#c62828" stroke="#fff" stroke-width="2"/><text x="235" y="302" text-anchor="middle" font-size="13" font-weight="bold" fill="#fff">S</text><rect x="255" y="277" width="40" height="40" fill="#2a2a3e" stroke="#444" stroke-width="1"/><rect x="295" y="277" width="40" height="40" fill="#2a2a3e" stroke="#444" stroke-width="1"/><rect x="335" y="277" width="40" height="40" fill="#2a2a3e" stroke="#444" stroke-width="1"/><rect x="15" y="317" width="40" height="40" fill="#2a2a3e" stroke="#444" stroke-width="1"/><rect x="55" y="317" width="40" height="40" fill="#2a2a3e" stroke="#444" stroke-width="1"/><rect x="95" y="317" width="40" height="40" fill="#2a2a3e" stroke="#444" stroke-width="1"/><rect x="135" y="317" width="40" height="40" fill="#2a2a3e" stroke="#444" stroke-width="1"/><rect x="175" y="317" width="40" height="40" fill="#2a2a3e" stroke="#444" stroke-width="1"/><circle cx="195" cy="337" r="13" fill="#f5f5f5" stroke="#111" stroke-width="2"/><text x="195" y="342" text-anchor="middle" font-size="13" font-weight="bold" fill="#111">P</text><rect x="215" y="317" width="40" height="40" fill="#2a2a3e" stroke="#444" stroke-width="1"/><rect x="255" y="317" width="40" height="40" fill="#2a2a3e" stroke="#444" stroke-width="1"/><rect x="295" y="317" width="40" height="40" fill="#2a2a3e" stroke="#444" stroke-width="1"/><rect x="335" y="317" width="40" height="40" fill="#2a2a3e" stroke="#444" stroke-width="1"/><rect x="15" y="357" width="40" height="40" fill="#2a2a3e" stroke="#444" stroke-width="1"/><rect x="55" y="357" width="40" height="40" fill="#2a2a3e" stroke="#444" stroke-width="1"/><rect x="95" y="357" width="40" height="40" fill="#2a2a3e" stroke="#444" stroke-width="1"/><rect x="135" y="357" width="40" height="40" fill="#2a2a3e" stroke="#444" stroke-width="1"/><rect x="175" y="357" width="40" height="40" fill="#2a2a3e" stroke="#444" stroke-width="1"/><rect x="215" y="357" width="40" height="40" fill="#2a2a3e" stroke="#444" stroke-width="1"/><rect x="255" y="357" width="40" height="40" fill="#2a2a3e" stroke="#444" stroke-width="1"/><rect x="295" y="357" width="40" height="40" fill="#2a2a3e" stroke="#444" stroke-width="1"/><rect x="335" y="357" width="40" height="40" fill="#2a2a3e" stroke="#444" stroke-width="1"/><rect x="15" y="397" width="40" height="40" fill="#2a2a3e" stroke="#444" stroke-width="1"/><rect x="55" y="397" width="40" height="40" fill="#2a2a3e" stroke="#444" stroke-width="1"/><rect x="95" y="397" width="40" height="40" fill="#2a2a3e" stroke="#444" stroke-width="1"/><rect x="135" y="397" width="40" height="40" fill="#2a2a3e" stroke="#444" stroke-width="1"/><rect x="175" y="397" width="40" height="40" fill="#2a2a3e" stroke="#444" stroke-width="1"/><rect x="215" y="397" width="40" height="40" fill="#2a2a3e" stroke="#444" stroke-width="1"/><rect x="255" y="397" width="40" height="40" fill="#2a2a3e" stroke="#444" stroke-width="1"/><rect x="295" y="397" width="40" height="40" fill="#2a2a3e" stroke="#444" stroke-width="1"/><rect x="335" y="397" width="40" height="40" fill="#2a2a3e" stroke="#444" stroke-width="1"/><rect x="15" y="437" width="40" height="40" fill="#2a2a3e" stroke="#444" stroke-width="1"/><rect x="55" y="437" width="40" height="40" fill="#2a2a3e" stroke="#444" stroke-width="1"/><rect x="95" y="437" width="40" height="40" fill="#2a2a3e" stroke="#444" stroke-width="1"/><rect x="135" y="437" width="40" height="40" fill="#2a2a3e" stroke="#444" stroke-width="1"/><rect x="175" y="437" width="40" height="40" fill="#2a2a3e" stroke="#444" stroke-width="1"/><rect x="215" y="437" width="40" height="40" fill="#2a2a3e" stroke="#444" stroke-width="1"/><rect x="255" y="437" width="40" height="40" fill="#2a2a3e" stroke="#444" stroke-width="1"/><rect x="295" y="437" width="40" height="40" fill="#2a2a3e" stroke="#444" stroke-width="1"/><rect x="335" y="437" width="40" height="40" fill="#2a2a3e" stroke="#444" stroke-width="1"/><rect x="15" y="477" width="40" height="40" fill="#2a2a3e" stroke="#444" stroke-width="1"/><rect x="55" y="477" width="40" height="40" fill="#2a2a3e" stroke="#444" stroke-width="1"/><rect x="95" y="477" width="40" height="40" fill="#2a2a3e" stroke="#444" stroke-width="1"/><rect x="135" y="477" width="40" height="40" fill="#2a2a3e" stroke="#444" stroke-width="1"/><rect x="175" y="477" width="40" height="40" fill="#2a2a3e" stroke="#444" stroke-width="1"/><rect x="215" y="477" width="40" height="40" fill="#2a2a3e" stroke="#444" stroke-width="1"/><rect x="255" y="477" width="40" height="40" fill="#2a2a3e" stroke="#444" stroke-width="1"/><rect x="295" y="477" width="40" height="40" fill="#2a2a3e" stroke="#444" stroke-width="1"/><rect x="335" y="477" width="40" height="40" fill="#2a2a3e" stroke="#444" stroke-width="1"/><text x="15" y="539" fill="#888" font-size="10">legend:</text><rect x="70" y="529" width="10" height="10" fill="#ff6b35" stroke="#555" stroke-width="1"/><text x="83" y="539" fill="#aaa" font-size="10">burst</text><rect x="132" y="529" width="10" height="10" fill="#39d353" stroke="#555" stroke-width="1"/><text x="145" y="539" fill="#aaa" font-size="10">resonant</text><rect x="212.6" y="529" width="10" height="10" fill="#ff7b54" stroke="#555" stroke-width="1"/><text x="225.6" y="539" fill="#aaa" font-size="10">swarmHum</text><rect x="70" y="545" width="10" height="10" fill="#f8f9fa" stroke="#555" stroke-width="1"/><text x="83" y="555" fill="#aaa" font-size="10">flashBurst</text><rect x="163" y="545" width="10" height="10" fill="#ff2fb3" stroke="#555" stroke-width="1"/><text x="176" y="555" fill="#aaa" font-size="10">pepBurst</text><rect x="243.6" y="545" width="10" height="10" fill="#ff2d00" stroke="#555" stroke-width="1"/><text x="256.6" y="555" fill="#aaa" font-size="10">beam</text><rect x="70" y="561" width="10" height="10" fill="#e8f4ff" stroke="#555" stroke-width="1"/><text x="83" y="571" fill="#aaa" font-size="10">heronStrike</text><rect x="169.2" y="561" width="10" height="10" fill="#ffd23f" stroke="#555" stroke-width="1"/><text x="182.2" y="571" fill="#aaa" font-size="10">chargeLane</text><rect x="262.2" y="561" width="10" height="10" fill="#9d4edd" stroke="#555" stroke-width="1"/><text x="275.2" y="571" fill="#aaa" font-size="10">lockOn(direct)</text><rect x="70" y="577" width="10" height="10" fill="#ff3b30" stroke="#555" stroke-width="1"/><text x="83" y="587" fill="#aaa" font-size="10">targetTile</text><rect x="163" y="577" width="10" height="10" fill="#39d353" stroke="#555" stroke-width="1"/><text x="176" y="587" fill="#aaa" font-size="10">tellCell</text><rect x="243.6" y="577" width="10" height="10" fill="#f5e9a8" stroke="#555" stroke-width="1"/><text x="256.6" y="587" fill="#aaa" font-size="10">duckLane</text><text x="15" y="607" fill="#666" font-size="10">visual proof 2026-10-07 — real combat, app.js bucket routing</text></svg>