<svg width="390" height="500" xmlns="http://www.w3.org/2000/svg"><rect width="390" height="500" fill="#1a1a2e"/><text x="195" y="25" text-anchor="middle" fill="#eee" font-size="16" font-family="monospace">The Oversight — 1</text><rect x="15" y="40" width="40" height="40" fill="#2a2a3e" stroke="#444" stroke-width="1"/><rect x="55" y="40" width="40" height="40" fill="#2a2a3e" stroke="#444" stroke-width="1"/><rect x="95" y="40" width="40" height="40" fill="#2a2a3e" stroke="#444" stroke-width="1"/><rect x="135" y="40" width="40" height="40" fill="#2a2a3e" stroke="#444" stroke-width="1"/><rect x="175" y="40" width="40" height="40" fill="#2a2a3e" stroke="#444" stroke-width="1"/><rect x="215" y="40" width="40" height="40" fill="#2a2a3e" stroke="#444" stroke-width="1"/><rect x="255" y="40" width="40" height="40" fill="#2a2a3e" stroke="#444" stroke-width="1"/><rect x="295" y="40" width="40" height="40" fill="#2a2a3e" stroke="#444" stroke-width="1"/><rect x="335" y="40" width="40" height="40" fill="#2a2a3e" stroke="#444" stroke-width="1"/><rect x="15" y="80" width="40" height="40" fill="#2a2a3e" stroke="#444" stroke-width="1"/><rect x="55" y="80" width="40" height="40" fill="#2a2a3e" stroke="#444" stroke-width="1"/><rect x="95" y="80" width="40" height="40" fill="#2a2a3e" stroke="#444" stroke-width="1"/><rect x="135" y="80" width="40" height="40" fill="#2a2a3e" stroke="#444" stroke-width="1"/><rect x="175" y="80" width="40" height="40" fill="#2a2a3e" stroke="#444" stroke-width="1"/><rect x="215" y="80" width="40" height="40" fill="#2a2a3e" stroke="#444" stroke-width="1"/><rect x="255" y="80" width="40" height="40" fill="#2a2a3e" stroke="#444" stroke-width="1"/><rect x="295" y="80" width="40" height="40" fill="#2a2a3e" stroke="#444" stroke-width="1"/><rect x="335" y="80" width="40" height="40" fill="#2a2a3e" stroke="#444" stroke-width="1"/><rect x="15" y="120" width="40" height="40" fill="#2a2a3e" stroke="#444" stroke-width="1"/><rect x="55" y="120" width="40" height="40" fill="#2a2a3e" stroke="#444" stroke-width="1"/><rect x="95" y="120" width="40" height="40" fill="#2a2a3e" stroke="#444" stroke-width="1"/><rect x="135" y="120" width="40" height="40" fill="#2a2a3e" stroke="#444" stroke-width="1"/><rect x="175" y="120" width="40" height="40" fill="#2a2a3e" stroke="#444" stroke-width="1"/><rect x="215" y="120" width="40" height="40" fill="#2a2a3e" stroke="#444" stroke-width="1"/><rect x="255" y="120" width="40" height="40" fill="#2a2a3e" stroke="#444" stroke-width="1"/><rect x="295" y="120" width="40" height="40" fill="#2a2a3e" stroke="#444" stroke-width="1"/><rect x="335" y="120" width="40" height="40" fill="#2a2a3e" stroke="#444" stroke-width="1"/><rect x="15" y="160" width="40" height="40" fill="#2a2a3e" stroke="#444" stroke-width="1"/><rect x="55" y="160" width="40" height="40" fill="#2a2a3e" stroke="#444" stroke-width="1"/><rect x="95" y="160" width="40" height="40" fill="#2a2a3e" stroke="#444" stroke-width="1"/><rect x="135" y="160" width="40" height="40" fill="#2a2a3e" stroke="#444" stroke-width="1"/><rect x="175" y="160" width="40" height="40" fill="#2a2a3e" stroke="#444" stroke-width="1"/><rect x="215" y="160" width="40" height="40" fill="#2a2a3e" stroke="#444" stroke-width="1"/><rect x="255" y="160" width="40" height="40" fill="#2a2a3e" stroke="#444" stroke-width="1"/><rect x="295" y="160" width="40" height="40" fill="#2a2a3e" stroke="#444" stroke-width="1"/><rect x="335" y="160" width="40" height="40" fill="#2a2a3e" stroke="#444" stroke-width="1"/><rect x="15" y="200" width="40" height="40" fill="#2a2a3e" stroke="#444" stroke-width="1"/><rect x="55" y="200" width="40" height="40" fill="#2a2a3e" stroke="#444" stroke-width="1"/><rect x="95" y="200" width="40" height="40" fill="#2a2a3e" stroke="#444" stroke-width="1"/><rect x="135" y="200" width="40" height="40" fill="#2a2a3e" stroke="#444" stroke-width="1"/><rect x="175" y="200" width="40" height="40" fill="#4a4a6e" stroke="#444" stroke-width="1"/><text x="195" y="228" text-anchor="middle" font-size="24">🧍</text><rect x="215" y="200" width="40" height="40" fill="#2a2a3e" stroke="#444" stroke-width="1"/><rect x="255" y="200" width="40" height="40" fill="#2a2a3e" stroke="#444" stroke-width="1"/><rect x="295" y="200" width="40" height="40" fill="#2a2a3e" stroke="#444" stroke-width="1"/><rect x="335" y="200" width="40" height="40" fill="#2a2a3e" stroke="#444" stroke-width="1"/><rect x="15" y="240" width="40" height="40" fill="#2a2a3e" stroke="#444" stroke-width="1"/><rect x="55" y="240" width="40" height="40" fill="#2a2a3e" stroke="#444" stroke-width="1"/><rect x="95" y="240" width="40" height="40" fill="#2a2a3e" stroke="#444" stroke-width="1"/><rect x="135" y="240" width="40" height="40" fill="#2a2a3e" stroke="#444" stroke-width="1"/><rect x="175" y="240" width="40" height="40" fill="#2a2a3e" stroke="#444" stroke-width="1"/><rect x="215" y="240" width="40" height="40" fill="#2a2a3e" stroke="#444" stroke-width="1"/><rect x="255" y="240" width="40" height="40" fill="#2a2a3e" stroke="#444" stroke-width="1"/><rect x="295" y="240" width="40" height="40" fill="#2a2a3e" stroke="#444" stroke-width="1"/><rect x="335" y="240" width="40" height="40" fill="#2a2a3e" stroke="#444" stroke-width="1"/><rect x="15" y="280" width="40" height="40" fill="#2a2a3e" stroke="#444" stroke-width="1"/><rect x="55" y="280" width="40" height="40" fill="#2a2a3e" stroke="#444" stroke-width="1"/><rect x="95" y="280" width="40" height="40" fill="#2a2a3e" stroke="#444" stroke-width="1"/><rect x="135" y="280" width="40" height="40" fill="#2a2a3e" stroke="#444" stroke-width="1"/><rect x="175" y="280" width="40" height="40" fill="#2a2a3e" stroke="#444" stroke-width="1"/><rect x="215" y="280" width="40" height="40" fill="#2a2a3e" stroke="#444" stroke-width="1"/><rect x="255" y="280" width="40" height="40" fill="#2a2a3e" stroke="#444" stroke-width="1"/><rect x="295" y="280" width="40" height="40" fill="#2a2a3e" stroke="#444" stroke-width="1"/><rect x="335" y="280" width="40" height="40" fill="#2a2a3e" stroke="#444" stroke-width="1"/><rect x="15" y="320" width="40" height="40" fill="#2a2a3e" stroke="#444" stroke-width="1"/><rect x="55" y="320" width="40" height="40" fill="#2a2a3e" stroke="#444" stroke-width="1"/><rect x="95" y="320" width="40" height="40" fill="#2a2a3e" stroke="#444" stroke-width="1"/><rect x="135" y="320" width="40" height="40" fill="#2a2a3e" stroke="#444" stroke-width="1"/><rect x="175" y="320" width="40" height="40" fill="#2a2a3e" stroke="#444" stroke-width="1"/><rect x="215" y="320" width="40" height="40" fill="#2a2a3e" stroke="#444" stroke-width="1"/><rect x="255" y="320" width="40" height="40" fill="#2a2a3e" stroke="#444" stroke-width="1"/><rect x="295" y="320" width="40" height="40" fill="#2a2a3e" stroke="#444" stroke-width="1"/><rect x="335" y="320" width="40" height="40" fill="#2a2a3e" stroke="#444" stroke-width="1"/><rect x="15" y="360" width="40" height="40" fill="#2a2a3e" stroke="#444" stroke-width="1"/><rect x="55" y="360" width="40" height="40" fill="#2a2a3e" stroke="#444" stroke-width="1"/><rect x="95" y="360" width="40" height="40" fill="#2a2a3e" stroke="#444" stroke-width="1"/><rect x="135" y="360" width="40" height="40" fill="#2a2a3e" stroke="#444" stroke-width="1"/><rect x="175" y="360" width="40" height="40" fill="#2a2a3e" stroke="#444" stroke-width="1"/><rect x="215" y="360" width="40" height="40" fill="#2a2a3e" stroke="#444" stroke-width="1"/><rect x="255" y="360" width="40" height="40" fill="#2a2a3e" stroke="#444" stroke-width="1"/><rect x="295" y="360" width="40" height="40" fill="#2a2a3e" stroke="#444" stroke-width="1"/><rect x="335" y="360" width="40" height="40" fill="#2a2a3e" stroke="#444" stroke-width="1"/><text x="15" y="430" fill="#eee" font-size="14" font-family="monospace">HP: 100/? | Hunger: 0</text></svg>